<svg version="1" xmlns="http://www.w3.org/2000/svg" width="933.333" height="933.333" viewBox="0 0 700.000000 700.000000"><path d="M143.3 238.4c-5.8 1.9-9.9 5-12.7 9.9-5.2 8.9-4.2 18.4 2.5 26.1 7.2 8.1 1.4 7.7 97.9 7.4l85.5-.3 4.7-3.2c8.5-5.9 12.1-17.8 8.2-27.1-1.9-4.7-5.8-8.8-10.9-11.5-4-2.2-4-2.2-87.5-2.4-66.7-.2-84.3.1-87.7 1.1zM436.9 238.5c-8.7 2.7-15 11.4-15.1 20.8-.1 9.2 4.7 17.1 12.7 20.8 3.7 1.7 7.3 1.9 48.7 1.9h44.6l.4 15.2c.3 14.7.4 15.5 3.1 19.5 7.8 12.2 24.8 13.9 35.1 3.6 6.1-6.2 6.8-10.2 6.4-40.5l-.3-26.3-2.8-4.7c-3.2-5.5-7.1-8.5-13.4-10.4-6.8-2.1-112.7-1.9-119.4.1zM145.3 328.1c-7.6 1.4-14 7.1-16.8 15-1.9 5.3-1.9 8.4.1 14.1 3 9 11.4 14.9 20.9 14.9 12.9 0 22.5-9.4 22.5-22.1 0-14.3-12.3-24.4-26.7-21.9zM225.3 328.1c-21.8 3.9-25.3 33.9-4.9 42.4 9.1 3.8 19.2 1.2 25.9-6.6 13.2-15.4-.8-39.3-21-35.8zM304.3 328.1c-5.4 1-11 4.8-14.4 9.9-10.9 16.2 3.6 37.3 23.1 33.8 5.8-1.1 11.3-4.8 14.7-10.1 2.4-3.6 2.8-5.2 2.8-11.7 0-6.5-.4-8.1-2.8-11.7-5-7.8-14.2-11.8-23.4-10.2zM434.5 374.9c-7.9 3.7-12.8 11.6-12.7 20.7.1 8.2 4.7 15.4 12.7 19.7 3.9 2.1 5.1 2.2 48.8 2.5l44.7.3v13.5c0 14.7 1 18.6 5.8 23.7 11.7 12.4 32 8 37.8-8 2-5.7 1.9-52.1-.1-58.9-1.7-5.8-6.3-10.9-12-13.5-3.7-1.7-8-1.9-62.5-1.9-54.8 0-58.8.2-62.5 1.9zM140.4 419.8c-8.7 4.1-14.5 15-12.9 24.2.4 2.2 2.1 6.2 3.8 8.7 9.8 14.5 32.4 12.3 39.1-3.9 3.9-9.2.1-21.5-8.3-27.2-5.7-3.8-15.6-4.6-21.7-1.8zM219.3 420.1c-7.9 3.9-12.3 11.2-12.3 20.1.1 10.5 7.3 19.6 17.5 21.9 10 2.2 21.3-3.6 25.3-13 3.5-8.2 1.1-19-5.5-25.3-6.3-6-17.2-7.6-25-3.7zM299.5 419.8c-12.5 5.9-16.9 20.9-9.5 32.5 9.5 15 32.6 12.9 39.4-3.5 3.9-9.2.3-21.2-8.1-27-5.9-4-15.6-4.9-21.8-2z"/></svg>