<svg version="1" xmlns="http://www.w3.org/2000/svg" width="613.333" height="613.333" viewBox="0 0 460.000000 460.000000"><path d="M0 230v110h460V120H0v110zm150-60v40H10v-80h140v40zm150 60v100H160V130h140v100zm150 0v100H310V130h140v100zm-400 5v15H10v-30h40v15zm50 0v15H60v-30h40v15zm50 0v15h-40v-30h40v15zM50 275v15H10v-30h40v15zm50 0v15H60v-30h40v15zm50 0v15h-40v-30h40v15zM50 315v15H10v-30h40v15zm50 0v15H60v-30h40v15zm50 0v15h-40v-30h40v15z"/><path d="M80 175v5h20v-10H80v5zM110 175v5h20v-10h-20v5zM240 225v5h30v20h10v-30h-40v5zM390 225v5h30v20h10v-30h-40v5z"/></svg>