<?xml version="1.0" encoding="UTF-8"?>
<svg width="51px" height="18px" viewBox="0 0 51 18" version="1.1" xmlns="http://www.w3.org/2000/svg" xmlns:xlink="http://www.w3.org/1999/xlink">
    <!-- Generator: Sketch 40.3 (33839) - http://www.bohemiancoding.com/sketch -->
    <title>logo-swoosh_white</title>
    <desc>Created with Sketch.</desc>
    <defs></defs>
    <g id="Page-1" stroke="none" stroke-width="1" fill="none" fill-rule="evenodd">
        <g id="nar008-web-1366x768_v1-1" transform="translate(-657.000000, -135.000000)" fill="#FFFFFF">
            <g id="logo-swoosh_white" transform="translate(657.000000, 135.000000)">
                <g id="runforever-copy">
                    <g id="Page-1">
                        <g id="nar-005_320x480_V1_w">
                            <g id="runforever-copy">
                                <g id="runforever">
                                    <g id="Page-1">
                                        <g id="nar-003-epic_web_v1_1280x550">
                                            <g id="runforever">
                                                <path d="M5.62571739,17.7109664 C4.10621957,17.6522059 2.86251139,17.2469715 1.89068868,16.4940453 C1.70516316,16.3503408 1.26290028,15.9187708 1.11469848,15.737009 C0.720378648,15.2538331 0.45270966,14.7837491 0.273743113,14.2617548 C-0.276274494,12.6555834 0.00701112205,10.5481208 1.08330906,8.23484432 C2.00515856,6.25494996 3.42798945,4.29103968 5.90978384,1.57100644 C6.27521292,1.17064336 7.36400415,0 7.37087547,0 C7.37337414,0 7.31449945,0.100014654 7.2396958,0.222407017 C6.59441677,1.27613827 6.04221284,2.51711158 5.7414366,3.59169825 C5.25825815,5.31554291 5.31650817,6.79490731 5.91212633,7.9422596 C6.32299979,8.73248191 7.02730968,9.41705714 7.819385,9.7956514 C9.20614146,10.4578488 11.2361469,10.5129558 13.7154426,9.95610108 C13.8862884,9.91743485 22.3444099,7.72868188 32.511615,5.09222252 C42.6786639,2.45530648 50.9988905,0.299282817 50.9998275,0.301109568 C51.0029508,0.303697466 27.3785858,10.1578049 15.1150047,15.2698172 C13.1727648,16.0792205 12.6531996,16.2838166 11.7405639,16.596039 C9.40634662,17.3950906 7.31559261,17.7765773 5.62571739,17.7109664" id="Page-1"></path>
                                            </g>
                                        </g>
                                    </g>
                                </g>
                            </g>
                        </g>
                    </g>
                </g>
            </g>
        </g>
    </g>
</svg>