<?xml version="1.0" standalone="no"?><!-- Generator: Gravit.io --><svg xmlns="http://www.w3.org/2000/svg" xmlns:xlink="http://www.w3.org/1999/xlink" style="isolation:isolate" viewBox="146 50 83 42" width="83" height="42"><g id="Group"><path d="M 150.2 50 L 179.8 50 C 182.118 50 184 51.882 184 54.2 L 184 54.2 C 184 56.518 182.118 58.4 179.8 58.4 L 150.2 58.4 C 147.882 58.4 146 56.518 146 54.2 L 146 54.2 C 146 51.882 147.882 50 150.2 50 Z" style="stroke:none;fill:#32DE9A;stroke-miterlimit:10;"/><path d=" M 146 71 C 146 68.682 147.882 66.8 150.2 66.8 C 152.518 66.8 154.4 68.682 154.4 71 C 154.4 73.318 152.518 75.2 150.2 75.2 C 147.882 75.2 146 73.318 146 71 Z " fill="rgb(50,222,154)"/><path d=" M 175.6 71 C 175.6 68.682 177.482 66.8 179.8 66.8 C 182.118 66.8 184 68.682 184 71 C 184 73.318 182.118 75.2 179.8 75.2 C 177.482 75.2 175.6 73.318 175.6 71 Z " fill="rgb(50,222,154)"/><path d=" M 160.8 71 C 160.8 68.682 162.682 66.8 165 66.8 C 167.318 66.8 169.2 68.682 169.2 71 C 169.2 73.318 167.318 75.2 165 75.2 C 162.682 75.2 160.8 73.318 160.8 71 Z " fill="rgb(50,222,154)"/><path d=" M 146 87.8 C 146 85.482 147.882 83.6 150.2 83.6 C 152.518 83.6 154.4 85.482 154.4 87.8 C 154.4 90.118 152.518 92 150.2 92 C 147.882 92 146 90.118 146 87.8 Z " fill="rgb(50,222,154)"/><path d=" M 175.6 87.8 C 175.6 85.482 177.482 83.6 179.8 83.6 C 182.118 83.6 184 85.482 184 87.8 C 184 90.118 182.118 92 179.8 92 C 177.482 92 175.6 90.118 175.6 87.8 Z " fill="rgb(50,222,154)"/><path d=" M 160.8 87.8 C 160.8 85.482 162.682 83.6 165 83.6 C 167.318 83.6 169.2 85.482 169.2 87.8 C 169.2 90.118 167.318 92 165 92 C 162.682 92 160.8 90.118 160.8 87.8 Z " fill="rgb(50,222,154)"/><path d="M 205 50 L 224.8 50 C 227.118 50 229 51.882 229 54.2 L 229 54.2 C 229 56.518 227.118 58.4 224.8 58.4 L 205 58.4 C 202.682 58.4 200.8 56.518 200.8 54.2 L 200.8 54.2 C 200.8 51.882 202.682 50 205 50 Z" style="stroke:none;fill:#32DE9A;stroke-miterlimit:10;"/><path d=" M 220.6 62.6 C 220.6 60.282 222.482 58.4 224.8 58.4 C 227.118 58.4 229 60.282 229 62.6 C 229 64.918 227.118 66.8 224.8 66.8 C 222.482 66.8 220.6 64.918 220.6 62.6 Z " fill="rgb(50,222,154)"/><rect x="220.6" y="54.2" width="8.4" height="8.4" transform="matrix(1,0,0,1,0,0)" fill="rgb(50,222,154)"/><path d="M 205 75.2 L 224.8 75.2 C 227.118 75.2 229 77.082 229 79.4 L 229 79.4 C 229 81.718 227.118 83.6 224.8 83.6 L 205 83.6 C 202.682 83.6 200.8 81.718 200.8 79.4 L 200.8 79.4 C 200.8 77.082 202.682 75.2 205 75.2 Z" style="stroke:none;fill:#32DE9A;stroke-miterlimit:10;"/><path d=" M 220.6 87.8 C 220.6 85.482 222.482 83.6 224.8 83.6 C 227.118 83.6 229 85.482 229 87.8 C 229 90.118 227.118 92 224.8 92 C 222.482 92 220.6 90.118 220.6 87.8 Z " fill="rgb(50,222,154)"/><rect x="220.6" y="79.4" width="8.4" height="8.4" transform="matrix(1,0,0,1,0,0)" fill="rgb(50,222,154)"/></g></svg>