<?xml version="1.0" standalone="no"?><!-- Generator: Gravit.io --><svg xmlns="http://www.w3.org/2000/svg" xmlns:xlink="http://www.w3.org/1999/xlink" style="isolation:isolate" viewBox="0 0 512 512" width="512" height="512"><g id="Group"><path d="M 256 0 L 256 0 C 397.29 0 512 114.71 512 256 L 512 256 C 512 397.29 397.29 512 256 512 L 256 512 C 114.71 512 0 397.29 0 256 L 0 256 C 0 114.71 114.71 0 256 0 Z" style="stroke:none;fill:#FFFFFF;stroke-miterlimit:10;"/><g id="Group"><path d="M 109.496 173.518 L 225.757 173.518 C 234.861 173.518 242.253 180.91 242.253 190.014 L 242.253 190.014 C 242.253 199.119 234.861 206.511 225.757 206.511 L 109.496 206.511 C 100.392 206.511 93 199.119 93 190.014 L 93 190.014 C 93 180.91 100.392 173.518 109.496 173.518 Z" style="stroke:none;fill:#00E29B;stroke-miterlimit:10;"/><path d=" M 93 256 C 93 246.895 100.392 239.504 109.496 239.504 C 118.601 239.504 125.993 246.895 125.993 256 C 125.993 265.105 118.601 272.496 109.496 272.496 C 100.392 272.496 93 265.105 93 256 Z " fill="rgb(0,226,155)"/><path d=" M 209.26 256 C 209.26 246.895 216.652 239.504 225.757 239.504 C 234.861 239.504 242.253 246.895 242.253 256 C 242.253 265.105 234.861 272.496 225.757 272.496 C 216.652 272.496 209.26 265.105 209.26 256 Z " fill="rgb(0,226,155)"/><path d=" M 151.13 256 C 151.13 246.895 158.522 239.504 167.627 239.504 C 176.731 239.504 184.123 246.895 184.123 256 C 184.123 265.105 176.731 272.496 167.627 272.496 C 158.522 272.496 151.13 265.105 151.13 256 Z " fill="rgb(0,226,155)"/><path d=" M 93 321.986 C 93 312.881 100.392 305.489 109.496 305.489 C 118.601 305.489 125.993 312.881 125.993 321.986 C 125.993 331.09 118.601 338.482 109.496 338.482 C 100.392 338.482 93 331.09 93 321.986 Z " fill="rgb(0,226,155)"/><path d=" M 209.26 321.986 C 209.26 312.881 216.652 305.489 225.757 305.489 C 234.861 305.489 242.253 312.881 242.253 321.986 C 242.253 331.09 234.861 338.482 225.757 338.482 C 216.652 338.482 209.26 331.09 209.26 321.986 Z " fill="rgb(0,226,155)"/><path d=" M 151.13 321.986 C 151.13 312.881 158.522 305.489 167.627 305.489 C 176.731 305.489 184.123 312.881 184.123 321.986 C 184.123 331.09 176.731 338.482 167.627 338.482 C 158.522 338.482 151.13 331.09 151.13 321.986 Z " fill="rgb(0,226,155)"/><path d="M 324.735 173.518 L 402.504 173.518 C 411.608 173.518 419 180.91 419 190.014 L 419 190.014 C 419 199.119 411.608 206.511 402.504 206.511 L 324.735 206.511 C 315.63 206.511 308.239 199.119 308.239 190.014 L 308.239 190.014 C 308.239 180.91 315.63 173.518 324.735 173.518 Z" style="stroke:none;fill:#00E29B;stroke-miterlimit:10;"/><path d=" M 386.007 223.007 C 386.007 213.903 393.399 206.511 402.504 206.511 C 411.608 206.511 419 213.903 419 223.007 C 419 232.112 411.608 239.504 402.504 239.504 C 393.399 239.504 386.007 232.112 386.007 223.007 Z " fill="rgb(0,226,155)"/><rect x="386.007" y="190.014" width="32.993" height="32.993" transform="matrix(1,0,0,1,0,0)" fill="rgb(0,226,155)"/><path d="M 324.735 272.496 L 402.504 272.496 C 411.608 272.496 419 279.888 419 288.993 L 419 288.993 C 419 298.097 411.608 305.489 402.504 305.489 L 324.735 305.489 C 315.63 305.489 308.239 298.097 308.239 288.993 L 308.239 288.993 C 308.239 279.888 315.63 272.496 324.735 272.496 Z" style="stroke:none;fill:#00E29B;stroke-miterlimit:10;"/><path d=" M 386.007 321.986 C 386.007 312.881 393.399 305.489 402.504 305.489 C 411.608 305.489 419 312.881 419 321.986 C 419 331.09 411.608 338.482 402.504 338.482 C 393.399 338.482 386.007 331.09 386.007 321.986 Z " fill="rgb(0,226,155)"/><rect x="386.007" y="288.993" width="32.993" height="32.993" transform="matrix(1,0,0,1,0,0)" fill="rgb(0,226,155)"/></g></g></svg>