<?xml version="1.0" encoding="UTF-8" standalone="no"?>
<svg
   xmlns:dc="http://purl.org/dc/elements/1.1/"
   xmlns:cc="http://creativecommons.org/ns#"
   xmlns:rdf="http://www.w3.org/1999/02/22-rdf-syntax-ns#"
   xmlns:svg="http://www.w3.org/2000/svg"
   xmlns="http://www.w3.org/2000/svg"
   xmlns:sodipodi="http://sodipodi.sourceforge.net/DTD/sodipodi-0.dtd"
   xmlns:inkscape="http://www.inkscape.org/namespaces/inkscape"
   fill="#FFFFFF"
   height="24"
   viewBox="0 0 24 24"
   width="24"
   version="1.1"
   id="svg6"
   sodipodi:docname="ic_screen_rotation_white_24px.svg"
   inkscape:version="0.92.1 r">
  <metadata
     id="metadata12">
    <rdf:RDF>
      <cc:Work
         rdf:about="">
        <dc:format>image/svg+xml</dc:format>
        <dc:type
           rdf:resource="http://purl.org/dc/dcmitype/StillImage" />
        <dc:title></dc:title>
      </cc:Work>
    </rdf:RDF>
  </metadata>
  <defs
     id="defs10" />
  <sodipodi:namedview
     pagecolor="#ffffff"
     bordercolor="#666666"
     borderopacity="1"
     objecttolerance="10"
     gridtolerance="10"
     guidetolerance="10"
     inkscape:pageopacity="0"
     inkscape:pageshadow="2"
     inkscape:window-width="1920"
     inkscape:window-height="1016"
     id="namedview8"
     showgrid="false"
     inkscape:zoom="9.8333333"
     inkscape:cx="-8.1355931"
     inkscape:cy="11.59322"
     inkscape:window-x="1680"
     inkscape:window-y="27"
     inkscape:window-maximized="1"
     inkscape:current-layer="svg6"
     borderlayer="true" />
  <path
     d="M0 0h24v24H0z"
     fill="none"
     id="path2" />
  <path
     d="M 21.48,7.52 C 19.93,4.25 16.76,1.91 13,1.55 V 0.05 C 19.16,0.56 24,5.71 24,12 l -0.03,0.66 -3.81,-3.81 z m 0.77,6.25 c 0.59,0.59 0.59,1.54 0,2.12 l -6.36,6.36 c -0.59,0.59 -1.54,0.59 -2.12,0 L 1.75,10.23 C 1.16,9.64 1.16,8.69 1.75,8.11 L 8.11,1.75 c 0.59,-0.59 1.54,-0.59 2.12,0 z M 2.81,9.17 14.83,21.19 21.19,14.83 9.17,2.81 Z m -0.29,7.31 c 1.54,3.27 4.72,5.61 8.48,5.97 v 1.5 C 4.84,23.44 0,18.29 0,12 l 0.03,-0.66 3.81,3.81 z"
     id="path4"
     inkscape:connector-curvature="0" />
</svg>
