<?xml version="1.0" encoding="UTF-8"?>
<svg width="16px" height="17px" viewBox="0 0 16 17" version="1.1" xmlns="http://www.w3.org/2000/svg" xmlns:xlink="http://www.w3.org/1999/xlink">
    <!-- Generator: Sketch 45.2 (43514) - http://www.bohemiancoding.com/sketch -->
    <title>no stock</title>
    <desc>Created with Sketch.</desc>
    <defs>
        <path d="M10.8074757,3.81578199 L16.6470761,16.1438273 L16.6470761,16.1438273 C17.1199272,17.1420686 16.6940144,18.3346246 15.6957731,18.8074757 C15.4281543,18.9342425 15.1357248,19 14.8396004,19 L3.16039958,19 L3.16039958,19 C2.05583008,19 1.16039958,18.1045695 1.16039958,17 C1.16039958,16.7038756 1.22615708,16.4114462 1.35292391,16.1438273 L7.19252432,3.81578199 L7.19252432,3.81578199 C7.66537544,2.81754073 8.85793144,2.39162788 9.85617269,2.864479 C10.2736122,3.06221351 10.6097412,3.39834247 10.8074757,3.81578199 Z" id="path-1"></path>
    </defs>
    <g id="Symbols" stroke="none" stroke-width="1" fill="none" fill-rule="evenodd">
        <g id="no-stock" transform="translate(-1.000000, -2.000000)">
            <g>
                <g id="Triangle">
                    <use fill="#FFFFFF" fill-rule="evenodd" xlink:href="#path-1"></use>
                    <path stroke="#787878" stroke-width="1" d="M10.3556068,4.02982516 C10.2073059,3.71674552 9.95520916,3.4646488 9.64212952,3.31634792 C8.89344858,2.96170958 7.99903158,3.28114422 7.64439324,4.02982516 L1.80479282,16.3578705 C1.70971771,16.5585846 1.66039958,16.7779067 1.66039958,17 C1.66039958,17.8284271 2.33197246,18.5 3.16039958,18.5 L14.8396004,18.5 C15.0616937,18.5 15.2810158,18.4506819 15.4817299,18.3556068 C16.2304109,18.0009684 16.5498455,17.1065514 16.1952072,16.3578705 L10.3556068,4.02982516 Z"></path>
                </g>
                <path d="M10.2919255,14.4284303 L10.2919255,15.6784303 C10.2919255,15.7751569 10.2565836,15.8588615 10.1858987,15.9295463 C10.1152138,16.0002312 10.0315093,16.0355731 9.93478261,16.0355731 L8.50621118,16.0355731 C8.40948451,16.0355731 8.32577999,16.0002312 8.25509511,15.9295463 C8.18441023,15.8588615 8.14906832,15.7751569 8.14906832,15.6784303 L8.14906832,14.4284303 C8.14906832,14.3317036 8.18441023,14.2479991 8.25509511,14.1773142 C8.32577999,14.1066293 8.40948451,14.0712874 8.50621118,14.0712874 L9.93478261,14.0712874 C10.0315093,14.0712874 10.1152138,14.1066293 10.1858987,14.1773142 C10.2565836,14.2479991 10.2919255,14.3317036 10.2919255,14.4284303 Z M10.4593362,8.53557312 L10.3030862,12.8212874 C10.2993659,12.9180141 10.2612339,13.0017186 10.1886889,13.0724035 C10.1161439,13.1430884 10.0315093,13.1784303 9.93478261,13.1784303 L8.50621118,13.1784303 C8.40948451,13.1784303 8.32484994,13.1430884 8.25230493,13.0724035 C8.17975992,13.0017186 8.14162787,12.9180141 8.13790761,12.8212874 L7.98165761,8.53557312 C7.97793735,8.43884645 8.01048911,8.35514193 8.07931386,8.28445705 C8.14813861,8.21377217 8.23091308,8.17843027 8.32763975,8.17843027 L10.113354,8.17843027 C10.2100807,8.17843027 10.2928552,8.21377217 10.3616799,8.28445705 C10.4305047,8.35514193 10.4630564,8.43884645 10.4593362,8.53557312 Z" id="" fill="#8A8A8A"></path>
            </g>
        </g>
    </g>
</svg>