<?xml version="1.0" encoding="UTF-8" standalone="no"?>
<!-- Generator: Adobe Illustrator 16.0.4, SVG Export Plug-In . SVG Version: 6.00 Build 0)  -->

<svg
   xmlns:dc="http://purl.org/dc/elements/1.1/"
   xmlns:cc="http://creativecommons.org/ns#"
   xmlns:rdf="http://www.w3.org/1999/02/22-rdf-syntax-ns#"
   xmlns:svg="http://www.w3.org/2000/svg"
   xmlns="http://www.w3.org/2000/svg"
   xmlns:sodipodi="http://sodipodi.sourceforge.net/DTD/sodipodi-0.dtd"
   xmlns:inkscape="http://www.inkscape.org/namespaces/inkscape"
   version="1.1"
   id="Layer_1"
   x="0px"
   y="0px"
   width="29"
   height="21"
   viewBox="0 0 29 21"
   enable-background="new 0 0 328 447"
   xml:space="preserve"
   sodipodi:docname="icon_card_white.svg"
   inkscape:version="0.92.2 5c3e80d, 2017-08-06"><metadata
     id="metadata23"><rdf:RDF><cc:Work
         rdf:about=""><dc:format>image/svg+xml</dc:format><dc:type
           rdf:resource="http://purl.org/dc/dcmitype/StillImage" /><dc:title></dc:title></cc:Work></rdf:RDF></metadata><defs
     id="defs21" /><sodipodi:namedview
     pagecolor="#ffffff"
     bordercolor="#666666"
     borderopacity="1"
     objecttolerance="10"
     gridtolerance="10"
     guidetolerance="10"
     inkscape:pageopacity="0"
     inkscape:pageshadow="2"
     inkscape:window-width="1920"
     inkscape:window-height="1016"
     id="namedview19"
     showgrid="false"
     fit-margin-top="0"
     fit-margin-left="0"
     fit-margin-right="0"
     fit-margin-bottom="0"
     inkscape:zoom="11.946466"
     inkscape:cx="-19.732536"
     inkscape:cy="2.341183"
     inkscape:window-x="1680"
     inkscape:window-y="27"
     inkscape:window-maximized="1"
     inkscape:current-layer="Layer_1" /><path
     stroke-miterlimit="10"
     d="m 28.5,19.5 c 0,0.553 -0.447,1 -1,1 h -26 c -0.552,0 -1,-0.447 -1,-1 v -18 c 0,-0.553 0.448,-1 1,-1 h 26 c 0.553,0 1,0.447 1,1 z"
     id="path2"
     style="fill:none;stroke:#ffffff;stroke-miterlimit:10"
     inkscape:connector-curvature="0" /><path
     style="fill:none;stroke:#ffffff;stroke-miterlimit:10"
     d="m 21.290992,14.085999 a 2.8329999,2.8329999 0 0 1 -2.832999,2.832999 2.8329999,2.8329999 0 0 1 -2.833,-2.832999 2.8329999,2.8329999 0 0 1 2.833,-2.833 2.8329999,2.8329999 0 0 1 2.832999,2.833 z"
     id="circle4" /><path
     style="fill:none;stroke:#ffffff;stroke-miterlimit:10"
     d="m 25.290992,14.085999 a 2.8329999,2.8329999 0 0 1 -2.832999,2.832999 2.8329999,2.8329999 0 0 1 -2.833,-2.832999 2.8329999,2.8329999 0 0 1 2.833,-2.833 2.8329999,2.8329999 0 0 1 2.832999,2.833 z"
     id="circle6" /><path
     style="fill:none;stroke:#ffffff;stroke-linecap:round;stroke-linejoin:round;stroke-miterlimit:10"
     d="m 3,13.5 h 8"
     id="line8" /><path
     style="fill:none;stroke:#ffffff;stroke-linecap:round;stroke-linejoin:round;stroke-miterlimit:10"
     d="M 3,16.5 H 7"
     id="line10" /><path
     stroke-miterlimit="10"
     d="m 11.5,8.5 c 0,0.553 -0.448,1 -1,1 h -6 c -0.552,0 -1,-0.447 -1,-1 v -4 c 0,-0.553 0.448,-1 1,-1 h 6 c 0.552,0 1,0.447 1,1 z"
     id="path12"
     style="fill:none;stroke:#ffffff;stroke-miterlimit:10"
     inkscape:connector-curvature="0" /><path
     style="fill:none;stroke:#ffffff;stroke-miterlimit:10"
     d="m 7.5,3 v 7"
     id="line14" /><path
     style="fill:none;stroke:#ffffff;stroke-miterlimit:10"
     d="M 7,6.5 H 4"
     id="line16" /></svg>