<?xml version="1.0" encoding="UTF-8" standalone="no"?>
<!-- Generator: Adobe Illustrator 16.0.4, SVG Export Plug-In . SVG Version: 6.00 Build 0)  -->

<svg
   xmlns:dc="http://purl.org/dc/elements/1.1/"
   xmlns:cc="http://creativecommons.org/ns#"
   xmlns:rdf="http://www.w3.org/1999/02/22-rdf-syntax-ns#"
   xmlns:svg="http://www.w3.org/2000/svg"
   xmlns="http://www.w3.org/2000/svg"
   xmlns:sodipodi="http://sodipodi.sourceforge.net/DTD/sodipodi-0.dtd"
   xmlns:inkscape="http://www.inkscape.org/namespaces/inkscape"
   version="1.1"
   id="Layer_1"
   x="0px"
   y="0px"
   width="29.507122"
   height="20.796"
   viewBox="0 0 29.507122 20.796"
   enable-background="new 0 0 328 447"
   xml:space="preserve"
   sodipodi:docname="icon_truck_green.svg"
   inkscape:version="0.92.2 5c3e80d, 2017-08-06"><metadata
     id="metadata31"><rdf:RDF><cc:Work
         rdf:about=""><dc:format>image/svg+xml</dc:format><dc:type
           rdf:resource="http://purl.org/dc/dcmitype/StillImage" /><dc:title></dc:title></cc:Work></rdf:RDF></metadata><defs
     id="defs29" /><sodipodi:namedview
     pagecolor="#ffffff"
     bordercolor="#666666"
     borderopacity="1"
     objecttolerance="10"
     gridtolerance="10"
     guidetolerance="10"
     inkscape:pageopacity="0"
     inkscape:pageshadow="2"
     inkscape:window-width="1920"
     inkscape:window-height="1016"
     id="namedview27"
     showgrid="false"
     inkscape:zoom="16.894855"
     inkscape:cx="9.1642078"
     inkscape:cy="12.324392"
     inkscape:window-x="1680"
     inkscape:window-y="27"
     inkscape:window-maximized="1"
     inkscape:current-layer="Layer_1"
     fit-margin-top="0"
     fit-margin-left="0"
     fit-margin-right="0"
     fit-margin-bottom="0" /><path
     stroke-miterlimit="10"
     d="M 3.0071212,5"
     id="path2"
     style="fill:none;stroke:#39b54a;stroke-miterlimit:10;stroke-opacity:1"
     inkscape:connector-curvature="0" /><path
     stroke-miterlimit="10"
     d="m 6.5071212,16.5 h -2.5 c -0.552,0 -1,-0.447 -1,-1 V 14"
     id="path4"
     style="fill:none;stroke:#39b54a;stroke-miterlimit:10;stroke-opacity:1"
     inkscape:connector-curvature="0" /><path
     stroke-miterlimit="10"
     d="M 6.5071212,16.5"
     id="path6"
     style="fill:none;stroke:#39b54a;stroke-miterlimit:10;stroke-opacity:1"
     inkscape:connector-curvature="0" /><path
     stroke-miterlimit="10"
     d="M 3.0071212,3 V 1.5 c 0,-0.553 0.448,-1 1,-1 H 18.007121 c 0.553,0 1,0.447 1,1 v 14 1 h -7.5"
     id="path8"
     style="fill:none;stroke:#39b54a;stroke-miterlimit:10;stroke-opacity:1"
     inkscape:connector-curvature="0" /><path
     stroke-miterlimit="10"
     d="M 21.507121,16.5"
     id="path10"
     style="fill:none;stroke:#39b54a;stroke-miterlimit:10;stroke-opacity:1"
     inkscape:connector-curvature="0" /><path
     stroke-miterlimit="10"
     d="m 21.507121,16.5 h -2.5 v -1 -11 -1 h 5 v 0 l 5,4 v 8 c 0,0.553 -0.447,1 -1,1 h -0.5"
     id="path12"
     style="fill:none;stroke:#39b54a;stroke-linecap:round;stroke-linejoin:round;stroke-miterlimit:10;stroke-opacity:1"
     inkscape:connector-curvature="0" /><path
     stroke-miterlimit="10"
     d="m 27.007121,10.5 c 0,0.553 -0.447,1 -1,1 h -3 c -0.553,0 -1,-0.447 -1,-1 v -3 c 0,-0.553 0.447,-1 1,-1 h 1 v 0 l 3,2.406 z"
     id="path14"
     style="fill:none;stroke:#39b54a;stroke-linecap:round;stroke-linejoin:round;stroke-miterlimit:10;stroke-opacity:1"
     inkscape:connector-curvature="0" /><path
     style="fill:none;stroke:#39b54a;stroke-miterlimit:10;stroke-opacity:1"
     d="m 27.365121,17.616 a 2.6789999,2.6789999 0 0 1 -2.679,2.679 2.6789999,2.6789999 0 0 1 -2.679,-2.679 2.6789999,2.6789999 0 0 1 2.679,-2.679 2.6789999,2.6789999 0 0 1 2.679,2.679 z"
     id="circle16"
     inkscape:connector-curvature="0" /><path
     style="fill:none;stroke:#39b54a;stroke-miterlimit:10;stroke-opacity:1"
     d="m 11.990121,17.617 a 2.6789999,2.6789999 0 0 1 -2.6789998,2.679 2.6789999,2.6789999 0 0 1 -2.679,-2.679 2.6789999,2.6789999 0 0 1 2.679,-2.679 2.6789999,2.6789999 0 0 1 2.6789998,2.679 z"
     id="circle18"
     inkscape:connector-curvature="0" /><path
     style="fill:none;stroke:#39b54a;stroke-linecap:round;stroke-linejoin:round;stroke-miterlimit:10;stroke-opacity:1"
     d="M 2.5071212,5.5 H 11.507121"
     id="line20"
     inkscape:connector-curvature="0" /><path
     style="fill:none;stroke:#39b54a;stroke-linecap:round;stroke-linejoin:round;stroke-miterlimit:10;stroke-opacity:1"
     d="M 1.5071212,8.5 H 10.507121"
     id="line22"
     inkscape:connector-curvature="0" /><path
     style="fill:none;stroke:#39b54a;stroke-linecap:round;stroke-linejoin:round;stroke-miterlimit:10;stroke-opacity:1"
     d="M 0.50712124,11.5 H 9.5071212"
     id="line24"
     inkscape:connector-curvature="0" /></svg>