<?xml version="1.0" encoding="utf-8"?>
<!-- Generator: Adobe Illustrator 16.0.4, SVG Export Plug-In . SVG Version: 6.00 Build 0)  -->
<!DOCTYPE svg PUBLIC "-//W3C//DTD SVG 1.1//EN" "http://www.w3.org/Graphics/SVG/1.1/DTD/svg11.dtd">
<svg version="1.1" id="Layer_1" xmlns="http://www.w3.org/2000/svg" xmlns:xlink="http://www.w3.org/1999/xlink" x="0px" y="0px"
	 width="328px" height="447px" viewBox="0 0 328 447" enable-background="new 0 0 328 447" xml:space="preserve">
<g>
	<g>
		<path fill="#FFFFFF" d="M157.597,230.021c-2.655-4.076-4.753-6.616-7.015-8.493c-2.77-2.298-5.554-3.45-8.059-3.315
			c-0.847,0.048-1.638,0.241-2.491,0.607c-0.354,0.152-1.111,0.583-1.42,0.81c-1.448,1.062-2.513,2.642-3.165,4.696
			c-0.696,2.204-0.93,5.001-0.694,8.313c0.09,1.263,0.177,2.008,0.55,4.692l6.114,44.155c0.363,2.618,0.568,4.257,0.737,5.106
			c-0.001,0.142-0.002,0.406-0.002,0.406h0.055c0.195,1,0.357,0.746,0.694,0.834l0.363,0.015l0.335,0.014
			c0.37-0.186,0.491-0.862,0.536-0.862h0.005c0,0-0.002-0.234-0.004-0.248c0.021-0.385,0.025-1.049,0.031-1.861l0.153-22.617
			c0.101-15.006,0.17-24.566,0.179-24.899c0.121-3.016,0.793-5.313,1.945-6.621c0.602-0.684,1.515-1.213,2.441-1.403
			c1.406-0.286,3.064,0.111,4.863,1.174c1.17,0.69,2.499,1.754,3.55,2.846c0.32,0.333,0.574,0.557,0.973,0.548l0.809-0.012
			l0.159-0.793C159.328,232.667,159.328,232.667,157.597,230.021z"/>
		<path fill="#FFFFFF" d="M160.75,447c-0.002,0,0,0-0.003,0c-4.235,0-8.759-0.164-13.445-0.725
			c-17.45-2.09-31.371-10.94-40.258-25.709c-17.07-28.369-14.721-76.063,6.444-130.906c9.427-24.425,2.085-56.513-1.858-73.76
			c-0.459-2.009-0.867-3.782-1.187-5.294c-0.82-3.873-2.946-9.079-5.639-15.675c-6.922-16.957-17.383-42.58-17.384-75.455
			C87.421,78.548,104.351,1.148,168.421,1.148c35.737,0,57.671,22.228,69.776,40.874c14.76,22.731,23.224,52.705,23.224,82.235
			c0,41.044-10.165,67.676-19.134,91.172c-7.51,19.674-13.995,36.666-13.866,58.608c0.081,13.723,0.54,25.895,0.985,37.665
			c1.194,31.63,2.139,56.491-6.031,82.626C214.805,421.746,201.283,447,160.75,447z M168.421,3.149
			c-26.419,0-47.833,14.219-61.926,41.121C95.804,64.678,89.42,92.793,89.42,119.478c0,32.483,10.373,57.889,17.235,74.701
			c2.73,6.688,4.887,11.971,5.744,16.02c0.318,1.503,0.723,3.274,1.18,5.271c3.991,17.456,11.421,49.947,1.775,74.942
			c-20.941,54.262-23.346,101.348-6.596,129.185c8.557,14.221,21.967,22.801,38.782,24.813c4.608,0.552,9.051,0.832,13.208,0.832
			c39.247,0.001,52.375-24.698,60.717-51.389c8.068-25.806,7.13-50.638,5.942-82.075c-0.445-11.786-0.905-23.974-0.986-37.729
			c-0.132-22.317,6.731-40.297,13.997-59.333c8.908-23.335,19.003-49.783,19.003-90.459c0-29.153-8.347-58.729-22.9-81.145
			C224.684,24.881,203.262,3.149,168.421,3.149z"/>
		<path fill="#FFFFFF" d="M155.568,428.902c-15.226,0-28.267-8.674-35.78-23.798c-11.413-22.973-7.542-54.639,9.414-77.004
			c1.615-2.131,3.413-4.461,5.335-6.952c16.127-20.903,40.499-52.491,40.499-73.746c0-19.289-6.915-33.833-23.123-48.63
			c-2.736-2.513-6.02-5.134-9.497-7.908c-16.175-12.907-38.327-30.584-38.327-64.462c0-27.312,5.309-52.803,14.948-71.779
			c11.206-22.06,27.552-33.72,47.272-33.72c23.891,0,42.45,8.997,55.162,26.742c13.061,18.228,19.682,45.399,19.682,80.758
			c0,59.432-24.916,113.033-34.297,133.211c-10.582,22.763-5.124,58.197-1.863,79.369c0.75,4.871,1.398,9.077,1.748,12.367
			c1.408,13.235-0.199,43.014-16.357,60.98C181.689,424,169.975,428.902,155.568,428.902z M166.311,21.902
			c-42.062,0-61.221,54.169-61.221,104.5c0,33.397,21.935,50.9,37.95,63.681c3.491,2.786,6.788,5.417,9.548,7.953
			c16.435,15.005,23.448,29.77,23.448,49.368c0,21.596-24.497,53.347-40.707,74.356c-1.92,2.489-3.716,4.817-5.33,6.945
			c-16.735,22.075-20.565,53.31-9.315,75.956c7.338,14.771,20.053,23.242,34.884,23.242c14.111,0,25.574-4.791,34.072-14.241
			c15.922-17.704,17.498-47.123,16.107-60.206c-0.348-3.267-0.994-7.462-1.742-12.32c-3.277-21.283-8.765-56.905,1.945-79.943
			c9.354-20.123,34.203-73.579,34.203-132.79c0-35.146-6.559-62.121-19.494-80.176C208.146,30.759,189.86,21.902,166.311,21.902z"/>
	</g>
	<g opacity="0.5">
		<rect x="50.506" fill="#FFFFFF" width="2" height="2"/>
		<path fill="#FFFFFF" d="M52.506,440h-2v-2h2V440z M53,434h-2v-4h2V434z M53,426h-2v-4h2V426z M53,418h-2v-4h2V418z M53,410h-2v-4
			h2V410z M53,402h-2v-4h2V402z M53,394h-2v-4h2V394z M53,386h-2v-4h2V386z M53,378h-2v-4h2V378z M53,370h-2v-4h2V370z M53,362h-2
			v-4h2V362z M53,354h-2v-4h2V354z M53,346h-2v-4h2V346z M53,338h-2v-4h2V338z M53,330h-2v-4h2V330z M53,322h-2v-4h2V322z M53,314
			h-2v-4h2V314z M53,306h-2v-4h2V306z M53,298h-2v-4h2V298z M53,290h-2v-4h2V290z M53,282h-2v-4h2V282z M53,274h-2v-4h2V274z
			 M53,266h-2v-4h2V266z M53,258h-2v-4h2V258z M53,250h-2v-4h2V250z M53,242h-2v-4h2V242z M53,234h-2v-4h2V234z M53,226h-2v-4h2V226
			z M53,218h-2v-4h2V218z M53,210h-2v-4h2V210z M53,202h-2v-4h2V202z M53,194h-2v-4h2V194z M53,186h-2v-4h2V186z M53,178h-2v-4h2
			V178z M53,170h-2v-4h2V170z M53,162h-2v-4h2V162z M53,154h-2v-4h2V154z M53,146h-2v-4h2V146z M53,138h-2v-4h2V138z M53,130h-2v-4
			h2V130z M53,122h-2v-4h2V122z M53,114h-2v-4h2V114z M53,106h-2v-4h2V106z M53,98h-2v-4h2V98z M53,90h-2v-4h2V90z M53,82h-2v-4h2
			V82z M53,74h-2v-4h2V74z M53,66h-2v-4h2V66z M53,58h-2v-4h2V58z M53,50h-2v-4h2V50z M53,42h-2v-4h2V42z M53,34h-2v-4h2V34z M53,26
			h-2v-4h2V26z M53,18h-2v-4h2V18z M53,10h-2V6h2V10z"/>
		<rect x="50.506" y="442" fill="#FFFFFF" width="2" height="2"/>
	</g>
	<g opacity="0.5">
		<rect x="67.506" y="371" fill="#FFFFFF" width="2" height="2"/>
		<path fill="#FFFFFF" d="M274.506,373h-1v-2h1V373z M270,373h-4v-2h4V373z M262,373h-4v-2h4V373z M254,373h-4v-2h4V373z M246,373
			h-4v-2h4V373z M238,373h-4v-2h4V373z M230,373h-4v-2h4V373z M222,373h-4v-2h4V373z M214,373h-4v-2h4V373z M206,373h-4v-2h4V373z
			 M198,373h-4v-2h4V373z M190,373h-4v-2h4V373z M182,373h-4v-2h4V373z M174,373h-4v-2h4V373z M166,373h-4v-2h4V373z M158,373h-4v-2
			h4V373z M150,373h-4v-2h4V373z M142,373h-4v-2h4V373z M134,373h-4v-2h4V373z M126,373h-4v-2h4V373z M118,373h-4v-2h4V373z
			 M110,373h-4v-2h4V373z M102,373h-4v-2h4V373z M94,373h-4v-2h4V373z M86,373h-4v-2h4V373z M78,373h-4v-2h4V373z"/>
		<rect x="276.506" y="371" fill="#FFFFFF" width="2" height="2"/>
	</g>
	<g opacity="0.5">
		<rect x="67.506" y="320" fill="#FFFFFF" width="2" height="2"/>
		<path fill="#FFFFFF" d="M274.506,322h-1v-2h1V322z M270,322h-4v-2h4V322z M262,322h-4v-2h4V322z M254,322h-4v-2h4V322z M246,322
			h-4v-2h4V322z M238,322h-4v-2h4V322z M230,322h-4v-2h4V322z M222,322h-4v-2h4V322z M214,322h-4v-2h4V322z M206,322h-4v-2h4V322z
			 M198,322h-4v-2h4V322z M190,322h-4v-2h4V322z M182,322h-4v-2h4V322z M174,322h-4v-2h4V322z M166,322h-4v-2h4V322z M158,322h-4v-2
			h4V322z M150,322h-4v-2h4V322z M142,322h-4v-2h4V322z M134,322h-4v-2h4V322z M126,322h-4v-2h4V322z M118,322h-4v-2h4V322z
			 M110,322h-4v-2h4V322z M102,322h-4v-2h4V322z M94,322h-4v-2h4V322z M86,322h-4v-2h4V322z M78,322h-4v-2h4V322z"/>
		<rect x="276.506" y="320" fill="#FFFFFF" width="2" height="2"/>
	</g>
	<g opacity="0.5">
		<rect x="67.506" y="79" fill="#FFFFFF" width="2" height="2"/>
		<path fill="#FFFFFF" d="M274.506,81h-1v-2h1V81z M270,81h-4v-2h4V81z M262,81h-4v-2h4V81z M254,81h-4v-2h4V81z M246,81h-4v-2h4V81
			z M238,81h-4v-2h4V81z M230,81h-4v-2h4V81z M222,81h-4v-2h4V81z M214,81h-4v-2h4V81z M206,81h-4v-2h4V81z M198,81h-4v-2h4V81z
			 M190,81h-4v-2h4V81z M182,81h-4v-2h4V81z M174,81h-4v-2h4V81z M166,81h-4v-2h4V81z M158,81h-4v-2h4V81z M150,81h-4v-2h4V81z
			 M142,81h-4v-2h4V81z M134,81h-4v-2h4V81z M126,81h-4v-2h4V81z M118,81h-4v-2h4V81z M110,81h-4v-2h4V81z M102,81h-4v-2h4V81z
			 M94,81h-4v-2h4V81z M86,81h-4v-2h4V81z M78,81h-4v-2h4V81z"/>
		<rect x="276.506" y="79" fill="#FFFFFF" width="2" height="2"/>
	</g>
	<g>
		<path fill="#FFFFFF" d="M0.853,225.905v-1.5l2.631-3.75c0.031-0.043,0.1-0.138,0.205-0.284s0.176-0.246,0.211-0.299
			s0.096-0.146,0.182-0.281s0.146-0.238,0.179-0.311s0.078-0.175,0.135-0.308s0.097-0.251,0.12-0.354s0.045-0.225,0.064-0.363
			s0.029-0.28,0.029-0.425c0-0.418-0.097-0.772-0.29-1.063s-0.472-0.437-0.835-0.437c-0.215,0-0.398,0.053-0.551,0.158
			s-0.269,0.252-0.349,0.439s-0.138,0.386-0.173,0.595s-0.053,0.437-0.053,0.683v0.375h-1.5v-0.375c0-0.984,0.211-1.748,0.633-2.291
			s1.086-0.814,1.992-0.814c0.852,0,1.502,0.239,1.951,0.718s0.674,1.149,0.674,2.013c0,0.324-0.028,0.627-0.085,0.908
			s-0.146,0.551-0.27,0.809s-0.236,0.471-0.34,0.639s-0.247,0.383-0.431,0.645l-2.625,3.375h3.75v1.5H0.853z"/>
		<path fill="#FFFFFF" d="M9.419,226.011c-0.922,0-1.591-0.267-2.007-0.8s-0.624-1.3-0.624-2.3c0-0.652,0.09-1.177,0.27-1.573
			s0.469-0.722,0.867-0.976c-0.336-0.254-0.584-0.566-0.744-0.938s-0.24-0.836-0.24-1.395c0-0.867,0.207-1.539,0.621-2.016
			s1.033-0.715,1.857-0.715c0.82,0,1.437,0.239,1.849,0.718s0.618,1.149,0.618,2.013c0,0.562-0.079,1.028-0.237,1.397
			s-0.405,0.681-0.741,0.935c0.395,0.258,0.682,0.586,0.861,0.984s0.27,0.92,0.27,1.564c0,1-0.207,1.767-0.621,2.3
			S10.337,226.011,9.419,226.011z M8.915,224.678c0.141,0.068,0.309,0.103,0.504,0.103s0.363-0.035,0.504-0.105
			s0.25-0.158,0.328-0.264s0.14-0.245,0.185-0.419s0.073-0.341,0.085-0.501s0.018-0.354,0.018-0.58c0-0.25-0.016-0.474-0.047-0.671
			s-0.086-0.386-0.164-0.565s-0.193-0.318-0.346-0.416s-0.34-0.146-0.562-0.146s-0.411,0.049-0.565,0.146s-0.271,0.235-0.352,0.413
			s-0.136,0.365-0.167,0.562s-0.047,0.423-0.047,0.677c0,0.227,0.007,0.421,0.021,0.583s0.043,0.33,0.088,0.504
			s0.107,0.313,0.188,0.419S8.774,224.609,8.915,224.678z M9.419,219.677c0.195,0,0.358-0.045,0.489-0.135s0.228-0.22,0.29-0.39
			s0.104-0.341,0.126-0.513s0.032-0.375,0.032-0.609c0-1-0.312-1.5-0.938-1.5c-0.633,0-0.949,0.5-0.949,1.5
			c0,0.234,0.012,0.438,0.035,0.612s0.066,0.345,0.129,0.513s0.159,0.297,0.29,0.387S9.22,219.677,9.419,219.677z"/>
		<path fill="#FFFFFF" d="M18.296,226.011c-0.441,0-0.83-0.062-1.166-0.188s-0.611-0.298-0.826-0.519s-0.39-0.496-0.524-0.826
			s-0.229-0.683-0.284-1.058s-0.082-0.799-0.082-1.271v-2.994c0-0.473,0.027-0.896,0.082-1.271s0.149-0.728,0.284-1.058
			s0.31-0.604,0.524-0.823s0.49-0.391,0.826-0.516s0.725-0.188,1.166-0.188c0.488,0,0.91,0.072,1.266,0.217s0.64,0.357,0.853,0.639
			s0.373,0.607,0.48,0.979s0.171,0.805,0.19,1.301c0.004,0.074,0.006,0.189,0.006,0.346h-1.5v-0.334
			c-0.004-0.207-0.012-0.384-0.023-0.53s-0.033-0.298-0.064-0.454s-0.077-0.286-0.138-0.39s-0.137-0.199-0.229-0.287
			s-0.208-0.152-0.349-0.193s-0.305-0.062-0.492-0.062c-0.242,0-0.45,0.039-0.624,0.117s-0.31,0.179-0.407,0.302
			s-0.173,0.288-0.226,0.495s-0.087,0.409-0.103,0.606s-0.023,0.44-0.023,0.729v3.75c0,0.25,0.011,0.477,0.032,0.68
			s0.063,0.405,0.126,0.606s0.144,0.37,0.243,0.507s0.232,0.247,0.398,0.331s0.36,0.126,0.583,0.126s0.414-0.043,0.574-0.129
			s0.286-0.195,0.378-0.328s0.164-0.303,0.217-0.51s0.087-0.408,0.103-0.604s0.023-0.422,0.023-0.68v-0.375h1.5v0.375
			c0,0.543-0.048,1.02-0.144,1.43s-0.25,0.772-0.463,1.087s-0.502,0.554-0.867,0.718S18.812,226.011,18.296,226.011z"/>
		<path fill="#FFFFFF" d="M22.087,225.905v-10.5h2.074l1.488,8.039l1.488-8.039h2.074v10.5h-1.5v-8.285l-1.5,8.285h-1.125
			l-1.5-8.285v8.285H22.087z"/>
		<path fill="#FFFFFF" d="M31.087,218.405l-0.375-0.75c0.27,0,0.462-0.059,0.577-0.176s0.173-0.309,0.173-0.574h-0.75v-1.5h1.5
			c0,0.562-0.006,1.035-0.018,1.418c-0.008,0.211-0.02,0.389-0.035,0.533s-0.047,0.288-0.094,0.431s-0.109,0.256-0.188,0.34
			s-0.183,0.151-0.313,0.202S31.274,218.405,31.087,218.405z"/>
		<path fill="#FFFFFF" d="M36.448,226.011c-0.945,0-1.667-0.277-2.165-0.832s-0.776-1.312-0.835-2.273l1.5-0.375
			c0.074,1.5,0.574,2.25,1.5,2.25c0.75,0,1.125-0.375,1.125-1.125c0-0.223-0.03-0.429-0.091-0.618s-0.153-0.363-0.278-0.521
			s-0.238-0.285-0.34-0.381s-0.24-0.214-0.416-0.354l-1.875-1.5c-0.344-0.27-0.618-0.612-0.823-1.028s-0.308-0.89-0.308-1.421
			c0-0.773,0.24-1.389,0.721-1.846s1.117-0.686,1.91-0.686c0.852,0,1.528,0.208,2.03,0.624s0.812,1.005,0.929,1.767
			c0.012,0.082,0.025,0.195,0.041,0.34l-1.5,0.375c-0.004-0.066-0.014-0.166-0.029-0.299c-0.066-0.477-0.216-0.858-0.448-1.146
			s-0.573-0.431-1.022-0.431c-0.359,0-0.637,0.101-0.832,0.302s-0.293,0.481-0.293,0.841c0,0.59,0.25,1.084,0.75,1.482l1.875,1.5
			c1,0.809,1.5,1.775,1.5,2.9c0,0.77-0.237,1.371-0.712,1.805S37.249,226.011,36.448,226.011z"/>
	</g>
	<g>
		<path fill="#FFFFFF" d="M291.862,83.298v-8.25h-1.125v-1.125c0.754-0.27,1.254-0.645,1.5-1.125h1.125v10.5H291.862z"/>
		<path fill="#FFFFFF" d="M297.194,83.403c-0.852,0-1.502-0.239-1.951-0.718s-0.674-1.149-0.674-2.013v-0.375h1.5
			c0,0.234,0.007,0.435,0.021,0.601s0.043,0.335,0.088,0.507s0.106,0.31,0.185,0.413s0.188,0.188,0.328,0.255s0.309,0.1,0.504,0.1
			s0.363-0.033,0.504-0.1s0.25-0.151,0.328-0.255s0.14-0.241,0.185-0.413s0.074-0.341,0.088-0.507s0.021-0.366,0.021-0.601
			c0-0.602-0.116-1.064-0.349-1.389s-0.616-0.486-1.151-0.486v-1.5c0.547,0,0.934-0.112,1.16-0.337s0.34-0.612,0.34-1.163
			c0-0.496-0.082-0.87-0.246-1.122s-0.457-0.378-0.879-0.378c-0.195,0-0.363,0.033-0.504,0.1s-0.25,0.151-0.328,0.255
			s-0.14,0.241-0.185,0.413s-0.074,0.341-0.088,0.507s-0.021,0.366-0.021,0.601h-1.5v-0.375c0-0.859,0.226-1.529,0.677-2.01
			s1.101-0.721,1.948-0.721c0.852,0,1.502,0.239,1.951,0.718s0.674,1.149,0.674,2.013c0,0.594-0.133,1.081-0.398,1.462
			s-0.633,0.644-1.102,0.788c0.488,0.164,0.86,0.471,1.116,0.92s0.384,1.018,0.384,1.705c0,0.984-0.211,1.748-0.633,2.291
			S298.101,83.403,297.194,83.403z"/>
		<path fill="#FFFFFF" d="M306.013,83.403c-0.441,0-0.83-0.062-1.166-0.188s-0.611-0.298-0.826-0.519s-0.39-0.496-0.524-0.826
			s-0.229-0.683-0.284-1.058s-0.082-0.799-0.082-1.271v-2.994c0-0.473,0.027-0.896,0.082-1.271s0.149-0.728,0.284-1.058
			s0.31-0.604,0.524-0.823s0.49-0.391,0.826-0.516s0.725-0.188,1.166-0.188c0.488,0,0.91,0.072,1.266,0.217s0.64,0.357,0.853,0.639
			s0.373,0.607,0.48,0.979s0.171,0.805,0.19,1.301c0.004,0.074,0.006,0.189,0.006,0.346h-1.5v-0.334
			c-0.004-0.207-0.012-0.384-0.023-0.53s-0.033-0.298-0.064-0.454s-0.077-0.286-0.138-0.39s-0.137-0.199-0.229-0.287
			s-0.208-0.152-0.349-0.193s-0.305-0.062-0.492-0.062c-0.242,0-0.45,0.039-0.624,0.117s-0.31,0.179-0.407,0.302
			s-0.173,0.288-0.226,0.495s-0.087,0.409-0.103,0.606s-0.023,0.44-0.023,0.729v3.75c0,0.25,0.011,0.477,0.032,0.68
			s0.063,0.405,0.126,0.606s0.144,0.37,0.243,0.507s0.232,0.247,0.398,0.331s0.36,0.126,0.583,0.126s0.414-0.043,0.574-0.129
			s0.286-0.195,0.378-0.328s0.164-0.303,0.217-0.51s0.087-0.408,0.103-0.604s0.023-0.422,0.023-0.68v-0.375h1.5v0.375
			c0,0.543-0.048,1.02-0.144,1.43s-0.25,0.772-0.463,1.087s-0.502,0.554-0.867,0.718S306.528,83.403,306.013,83.403z"/>
		<path fill="#FFFFFF" d="M309.804,83.298v-10.5h2.074l1.488,8.039l1.488-8.039h2.074v10.5h-1.5v-8.285l-1.5,8.285h-1.125
			l-1.5-8.285v8.285H309.804z"/>
		<path fill="#FFFFFF" d="M318.804,75.798l-0.375-0.75c0.27,0,0.462-0.059,0.577-0.176s0.173-0.309,0.173-0.574h-0.75v-1.5h1.5
			c0,0.562-0.006,1.035-0.018,1.418c-0.008,0.211-0.02,0.389-0.035,0.533s-0.047,0.288-0.094,0.431s-0.109,0.256-0.188,0.34
			s-0.183,0.151-0.313,0.202S318.991,75.798,318.804,75.798z"/>
		<path fill="#FFFFFF" d="M324.165,83.403c-0.945,0-1.667-0.277-2.165-0.832s-0.776-1.312-0.835-2.273l1.5-0.375
			c0.074,1.5,0.574,2.25,1.5,2.25c0.75,0,1.125-0.375,1.125-1.125c0-0.223-0.03-0.429-0.091-0.618s-0.153-0.363-0.278-0.521
			s-0.238-0.285-0.34-0.381s-0.24-0.214-0.416-0.354l-1.875-1.5c-0.344-0.27-0.618-0.612-0.823-1.028s-0.308-0.89-0.308-1.421
			c0-0.773,0.24-1.389,0.721-1.846s1.117-0.686,1.91-0.686c0.852,0,1.528,0.208,2.03,0.624s0.812,1.005,0.929,1.767
			c0.012,0.082,0.025,0.195,0.041,0.34l-1.5,0.375c-0.004-0.066-0.014-0.166-0.029-0.299c-0.066-0.477-0.216-0.858-0.448-1.146
			s-0.573-0.431-1.022-0.431c-0.359,0-0.637,0.101-0.832,0.302s-0.293,0.481-0.293,0.841c0,0.59,0.25,1.084,0.75,1.482l1.875,1.5
			c1,0.809,1.5,1.775,1.5,2.9c0,0.77-0.237,1.371-0.712,1.805S324.966,83.403,324.165,83.403z"/>
	</g>
	<g>
		<path fill="#FFFFFF" d="M293.368,323.903c-0.922,0-1.591-0.267-2.007-0.8s-0.624-1.3-0.624-2.3c0-0.652,0.09-1.177,0.27-1.573
			s0.469-0.722,0.867-0.976c-0.336-0.254-0.584-0.566-0.744-0.938s-0.24-0.836-0.24-1.395c0-0.867,0.207-1.539,0.621-2.016
			s1.033-0.715,1.857-0.715c0.82,0,1.437,0.239,1.849,0.718s0.618,1.149,0.618,2.013c0,0.562-0.079,1.028-0.237,1.397
			s-0.405,0.681-0.741,0.935c0.395,0.258,0.682,0.586,0.861,0.984s0.27,0.92,0.27,1.564c0,1-0.207,1.767-0.621,2.3
			S294.286,323.903,293.368,323.903z M292.864,322.57c0.141,0.068,0.309,0.103,0.504,0.103s0.363-0.035,0.504-0.105
			s0.25-0.158,0.328-0.264s0.14-0.245,0.185-0.419s0.073-0.341,0.085-0.501s0.018-0.354,0.018-0.58c0-0.25-0.016-0.474-0.047-0.671
			s-0.086-0.386-0.164-0.565s-0.193-0.318-0.346-0.416s-0.34-0.146-0.562-0.146s-0.411,0.049-0.565,0.146s-0.271,0.235-0.352,0.413
			s-0.136,0.365-0.167,0.562s-0.047,0.423-0.047,0.677c0,0.227,0.007,0.421,0.021,0.583s0.043,0.33,0.088,0.504
			s0.107,0.313,0.188,0.419S292.724,322.502,292.864,322.57z M293.368,317.569c0.195,0,0.358-0.045,0.489-0.135
			s0.228-0.22,0.29-0.39s0.104-0.341,0.126-0.513s0.032-0.375,0.032-0.609c0-1-0.312-1.5-0.938-1.5c-0.633,0-0.949,0.5-0.949,1.5
			c0,0.234,0.012,0.438,0.035,0.612s0.066,0.345,0.129,0.513s0.159,0.297,0.29,0.387S293.169,317.569,293.368,317.569z"/>
		<path fill="#FFFFFF" d="M302.245,323.903c-0.441,0-0.83-0.062-1.166-0.188s-0.611-0.298-0.826-0.519s-0.39-0.496-0.524-0.826
			s-0.229-0.683-0.284-1.058s-0.082-0.799-0.082-1.271v-2.994c0-0.473,0.027-0.896,0.082-1.271s0.149-0.728,0.284-1.058
			s0.31-0.604,0.524-0.823s0.49-0.391,0.826-0.516s0.725-0.188,1.166-0.188c0.488,0,0.91,0.072,1.266,0.217s0.64,0.357,0.853,0.639
			s0.373,0.607,0.48,0.979s0.171,0.805,0.19,1.301c0.004,0.074,0.006,0.189,0.006,0.346h-1.5v-0.334
			c-0.004-0.207-0.012-0.384-0.023-0.53s-0.033-0.298-0.064-0.454s-0.077-0.286-0.138-0.39s-0.137-0.199-0.229-0.287
			s-0.208-0.152-0.349-0.193s-0.305-0.062-0.492-0.062c-0.242,0-0.45,0.039-0.624,0.117s-0.31,0.179-0.407,0.302
			s-0.173,0.288-0.226,0.495s-0.087,0.409-0.103,0.606s-0.023,0.44-0.023,0.729v3.75c0,0.25,0.011,0.477,0.032,0.68
			s0.063,0.405,0.126,0.606s0.144,0.37,0.243,0.507s0.232,0.247,0.398,0.331s0.36,0.126,0.583,0.126s0.414-0.043,0.574-0.129
			s0.286-0.195,0.378-0.328s0.164-0.303,0.217-0.51s0.087-0.408,0.103-0.604s0.023-0.422,0.023-0.68v-0.375h1.5v0.375
			c0,0.543-0.048,1.02-0.144,1.43s-0.25,0.772-0.463,1.087s-0.502,0.554-0.867,0.718S302.761,323.903,302.245,323.903z"/>
		<path fill="#FFFFFF" d="M306.036,323.798v-10.5h2.074l1.488,8.039l1.488-8.039h2.074v10.5h-1.5v-8.285l-1.5,8.285h-1.125
			l-1.5-8.285v8.285H306.036z"/>
		<path fill="#FFFFFF" d="M315.036,316.298l-0.375-0.75c0.27,0,0.462-0.059,0.577-0.176s0.173-0.309,0.173-0.574h-0.75v-1.5h1.5
			c0,0.562-0.006,1.035-0.018,1.418c-0.008,0.211-0.02,0.389-0.035,0.533s-0.047,0.288-0.094,0.431s-0.109,0.256-0.188,0.34
			s-0.183,0.151-0.313,0.202S315.224,316.298,315.036,316.298z"/>
		<path fill="#FFFFFF" d="M320.397,323.903c-0.945,0-1.667-0.277-2.165-0.832s-0.776-1.312-0.835-2.273l1.5-0.375
			c0.074,1.5,0.574,2.25,1.5,2.25c0.75,0,1.125-0.375,1.125-1.125c0-0.223-0.03-0.429-0.091-0.618s-0.153-0.363-0.278-0.521
			s-0.238-0.285-0.34-0.381s-0.24-0.214-0.416-0.354l-1.875-1.5c-0.344-0.27-0.618-0.612-0.823-1.028s-0.308-0.89-0.308-1.421
			c0-0.773,0.24-1.389,0.721-1.846s1.117-0.686,1.91-0.686c0.852,0,1.528,0.208,2.03,0.624s0.812,1.005,0.929,1.767
			c0.012,0.082,0.025,0.195,0.041,0.34l-1.5,0.375c-0.004-0.066-0.014-0.166-0.029-0.299c-0.066-0.477-0.216-0.858-0.448-1.146
			s-0.573-0.431-1.022-0.431c-0.359,0-0.637,0.101-0.832,0.302s-0.293,0.481-0.293,0.841c0,0.59,0.25,1.084,0.75,1.482l1.875,1.5
			c1,0.809,1.5,1.775,1.5,2.9c0,0.77-0.237,1.371-0.712,1.805S321.198,323.903,320.397,323.903z"/>
	</g>
	<g>
		<path fill="#FFFFFF" d="M291.862,376.298v-8.25h-1.125v-1.125c0.754-0.27,1.254-0.645,1.5-1.125h1.125v10.5H291.862z"/>
		<path fill="#FFFFFF" d="M297.3,376.403c-0.57,0-1.056-0.135-1.456-0.404s-0.695-0.634-0.885-1.093s-0.284-0.995-0.284-1.608v-4.5
			c0-0.965,0.219-1.724,0.656-2.276s1.094-0.829,1.969-0.829c0.871,0,1.526,0.277,1.966,0.832s0.659,1.312,0.659,2.273v4.5
			c0,0.941-0.224,1.694-0.671,2.259S298.155,376.403,297.3,376.403z M297.3,375.173c0.75,0,1.125-0.625,1.125-1.875v-4.5
			c0-0.211-0.008-0.399-0.023-0.565s-0.048-0.334-0.097-0.504s-0.113-0.312-0.193-0.425s-0.188-0.205-0.325-0.275
			s-0.299-0.105-0.486-0.105s-0.35,0.035-0.486,0.105s-0.245,0.162-0.325,0.275s-0.145,0.255-0.193,0.425s-0.081,0.338-0.097,0.504
			s-0.023,0.354-0.023,0.565v4.5c0,0.246,0.017,0.473,0.05,0.68s0.09,0.404,0.17,0.592s0.196,0.335,0.349,0.442
			S297.081,375.173,297.3,375.173z"/>
		<path fill="#FFFFFF" d="M306.37,376.403c-0.441,0-0.83-0.062-1.166-0.188s-0.611-0.298-0.826-0.519s-0.39-0.496-0.524-0.826
			s-0.229-0.683-0.284-1.058s-0.082-0.799-0.082-1.271v-2.994c0-0.473,0.027-0.896,0.082-1.271s0.149-0.728,0.284-1.058
			s0.31-0.604,0.524-0.823s0.49-0.391,0.826-0.516s0.725-0.188,1.166-0.188c0.488,0,0.91,0.072,1.266,0.217s0.64,0.357,0.853,0.639
			s0.373,0.607,0.48,0.979s0.171,0.805,0.19,1.301c0.004,0.074,0.006,0.189,0.006,0.346h-1.5v-0.334
			c-0.004-0.207-0.012-0.384-0.023-0.53s-0.033-0.298-0.064-0.454s-0.077-0.286-0.138-0.39s-0.137-0.199-0.229-0.287
			s-0.208-0.152-0.349-0.193s-0.305-0.062-0.492-0.062c-0.242,0-0.45,0.039-0.624,0.117s-0.31,0.179-0.407,0.302
			s-0.173,0.288-0.226,0.495s-0.087,0.409-0.103,0.606s-0.023,0.44-0.023,0.729v3.75c0,0.25,0.011,0.477,0.032,0.68
			s0.063,0.405,0.126,0.606s0.144,0.37,0.243,0.507s0.232,0.247,0.398,0.331s0.36,0.126,0.583,0.126s0.414-0.043,0.574-0.129
			s0.286-0.195,0.378-0.328s0.164-0.303,0.217-0.51s0.087-0.408,0.103-0.604s0.023-0.422,0.023-0.68v-0.375h1.5v0.375
			c0,0.543-0.048,1.02-0.144,1.43s-0.25,0.772-0.463,1.087s-0.502,0.554-0.867,0.718S306.886,376.403,306.37,376.403z"/>
		<path fill="#FFFFFF" d="M310.161,376.298v-10.5h2.074l1.488,8.039l1.488-8.039h2.074v10.5h-1.5v-8.285l-1.5,8.285h-1.125
			l-1.5-8.285v8.285H310.161z"/>
		<path fill="#FFFFFF" d="M319.161,368.798l-0.375-0.75c0.27,0,0.462-0.059,0.577-0.176s0.173-0.309,0.173-0.574h-0.75v-1.5h1.5
			c0,0.562-0.006,1.035-0.018,1.418c-0.008,0.211-0.02,0.389-0.035,0.533s-0.047,0.288-0.094,0.431s-0.109,0.256-0.188,0.34
			s-0.183,0.151-0.313,0.202S319.349,368.798,319.161,368.798z"/>
		<path fill="#FFFFFF" d="M324.522,376.403c-0.945,0-1.667-0.277-2.165-0.832s-0.776-1.312-0.835-2.273l1.5-0.375
			c0.074,1.5,0.574,2.25,1.5,2.25c0.75,0,1.125-0.375,1.125-1.125c0-0.223-0.03-0.429-0.091-0.618s-0.153-0.363-0.278-0.521
			s-0.238-0.285-0.34-0.381s-0.24-0.214-0.416-0.354l-1.875-1.5c-0.344-0.27-0.618-0.612-0.823-1.028s-0.308-0.89-0.308-1.421
			c0-0.773,0.24-1.389,0.721-1.846s1.117-0.686,1.91-0.686c0.852,0,1.528,0.208,2.03,0.624s0.812,1.005,0.929,1.767
			c0.012,0.082,0.025,0.195,0.041,0.34l-1.5,0.375c-0.004-0.066-0.014-0.166-0.029-0.299c-0.066-0.477-0.216-0.858-0.448-1.146
			s-0.573-0.431-1.022-0.431c-0.359,0-0.637,0.101-0.832,0.302s-0.293,0.481-0.293,0.841c0,0.59,0.25,1.084,0.75,1.482l1.875,1.5
			c1,0.809,1.5,1.775,1.5,2.9c0,0.77-0.237,1.371-0.712,1.805S325.323,376.403,324.522,376.403z"/>
	</g>
</g>
</svg>
