<?xml version="1.0" encoding="UTF-8" standalone="no"?>
<!-- Generator: Adobe Illustrator 16.0.4, SVG Export Plug-In . SVG Version: 6.00 Build 0)  -->

<svg
   xmlns:dc="http://purl.org/dc/elements/1.1/"
   xmlns:cc="http://creativecommons.org/ns#"
   xmlns:rdf="http://www.w3.org/1999/02/22-rdf-syntax-ns#"
   xmlns:svg="http://www.w3.org/2000/svg"
   xmlns="http://www.w3.org/2000/svg"
   xmlns:sodipodi="http://sodipodi.sourceforge.net/DTD/sodipodi-0.dtd"
   xmlns:inkscape="http://www.inkscape.org/namespaces/inkscape"
   version="1.1"
   id="Layer_1"
   x="0px"
   y="0px"
   width="284px"
   height="195px"
   viewBox="0 0 284 195"
   enable-background="new 0 0 284 195"
   xml:space="preserve"
   sodipodi:docname="sizetable_mobile_black.svg"
   inkscape:version="0.92.2 5c3e80d, 2017-08-06"><metadata
     id="metadata101"><rdf:RDF><cc:Work
         rdf:about=""><dc:format>image/svg+xml</dc:format><dc:type
           rdf:resource="http://purl.org/dc/dcmitype/StillImage" /><dc:title></dc:title></cc:Work></rdf:RDF></metadata><defs
     id="defs99" /><sodipodi:namedview
     pagecolor="#ffffff"
     bordercolor="#666666"
     borderopacity="1"
     objecttolerance="10"
     gridtolerance="10"
     guidetolerance="10"
     inkscape:pageopacity="0"
     inkscape:pageshadow="2"
     inkscape:window-width="796"
     inkscape:window-height="480"
     id="namedview97"
     showgrid="false"
     inkscape:zoom="1.2102564"
     inkscape:cx="142"
     inkscape:cy="97.5"
     inkscape:window-x="0"
     inkscape:window-y="30"
     inkscape:window-maximized="0"
     inkscape:current-layer="Layer_1" /><g
     id="g94"
     style="fill:#000000"><path
       fill="#FFFFFF"
       d="M182,113.276v-0.008c0,0-0.016,0.002-0.034,0.004c-0.266-0.016-0.617-0.018-1.092-0.021l-14.321-0.098   c-9.525-0.063-15.574-0.107-15.786-0.113c-1.914-0.076-3.364-0.503-4.193-1.234c-0.435-0.381-0.765-0.961-0.887-1.549   c-0.184-0.898,0.069-1.938,0.747-3.087c0.44-0.745,1.116-1.588,1.808-2.253c0.208-0.199,0.423-0.241,0.326-0.608L148.442,104   h-0.488c-0.226,0-0.226-0.164-1.837,0.891c-2.586,1.684-4.198,2.933-5.392,4.37c-1.463,1.766-2.191,3.492-2.104,5.074   c0.03,0.539,0.153,1.022,0.385,1.562c0.097,0.225,0.37,0.694,0.514,0.89c0.676,0.92,1.678,1.592,2.981,2.006   c1.044,0.328,2.311,0.492,3.769,0.492c0.482,0,0.99-0.021,1.507-0.057c0.805-0.058,1.278-0.112,2.98-0.349l28.026-3.882   c1.636-0.227,2.539-0.357,3.089-0.469c0.097,0.002,0.127,0.002,0.127,0.002v-0.037c1-0.135,0.643-0.25,0.684-0.494l0.026-0.104   C182.71,113.45,183,113.319,182,113.276z"
       id="path2"
       style="fill:#000000" /><path
       fill="#FFFFFF"
       d="M75.95,149.271c-25.978,0-75.107-10.746-75.107-51.414c0-22.685,14.107-36.605,25.944-44.29   c14.428-9.368,33.452-14.741,52.196-14.741c26.053,0,42.955,6.567,57.868,12.258C149.226,55.808,159.911,60,173.65,60   c0.001,0,0.002,0,0.004,0l0.4-0.115c8.711-0.051,16.437-0.4,23.908-0.681c6.782-0.257,13.188-0.527,19.23-0.527   c13.635,0,23.591,1.28,33.293,4.312c19.4,6.063,36.823,16.103,32.972,48.278c-2.491,20.812-19.58,32.75-46.879,32.75   c-0.001,0,0.002,0,0,0c-15.485,0-33.179-3.801-52.588-11.292c-4.988-1.926-10.997-2.902-17.858-2.902   c-11.119,0-22.293,2.555-28.97,4.082c-1.275,0.291-2.405,0.549-3.365,0.752c-2.459,0.521-5.765,1.871-9.951,3.579   C113.083,142.63,96.818,149.271,75.95,149.271z M78.983,40.095c-18.504,0-37.277,5.299-51.506,14.536   C15.906,62.144,2.112,75.741,2.112,97.856c0,16.77,9.025,30.361,26.101,39.307c12.954,6.786,30.8,10.838,47.737,10.838   c20.618,0,36.745-6.584,47.417-10.939c4.244-1.733,7.598-3.102,10.167-3.646c0.955-0.201,2.078-0.459,3.346-0.748   c6.729-1.539,17.991-4.114,29.253-4.114c7.018,0,13.18,1.005,18.316,2.987c19.262,7.434,36.802,11.203,52.13,11.203   c26.584,0,43.212-11.529,45.618-31.633c1.757-14.676-0.83-25.637-7.909-33.51c-6.454-7.178-15.846-10.809-24.181-13.414   c-9.572-2.992-19.415-4.269-32.914-4.269c-6.018,0-12.413,0.241-19.184,0.497c-7.48,0.283-15.217,0.553-23.947,0.605L173.654,61   c-0.001,0-0.004,0-0.004,0c-13.975,0-25.28-4.294-37.252-8.865C121.589,46.482,104.802,40.095,78.983,40.095z"
       id="path4"
       style="fill:#000000" /><path
       fill="#FFFFFF"
       d="M80.346,138.689c-17.336,0-33.516-3.369-45.562-9.487c-14.003-7.113-21.403-17.489-21.403-30.006   c0-15.165,5.711-26.945,16.974-35.014c11.57-8.29,28.816-12.493,51.261-12.493c37.727,0,71.747,15.815,84.554,21.77   c5.729,2.663,13.007,3.958,22.252,3.958c10.111,0,20.524-1.604,28.126-2.775c3.093-0.477,5.762-0.887,7.851-1.109   c1.507-0.16,3.294-0.245,5.165-0.245c7.146,0,42.791,1.578,42.791,32.728c0,7.932-3.522,14.747-10.187,19.709   c-6.204,4.619-14.625,7.162-23.708,7.162c-10.78,0-21.466-3.6-30.088-10.136c-1.354-1.025-2.833-2.167-4.415-3.388   c-13.267-10.236-33.315-25.705-46.808-25.705c-12.243,0-21.474,4.39-30.866,14.678c-1.595,1.736-3.259,3.82-5.02,6.027   C113.069,124.629,101.849,138.689,80.346,138.689z M81.615,52.324c-22.309,0-39.432,4.163-50.891,12.374   c-11.089,7.943-16.71,19.55-16.71,34.498c0,26.698,34.384,38.858,66.331,38.858c21.198,0,32.309-13.923,40.421-24.089   c1.768-2.215,3.438-4.309,5.048-6.061c9.523-10.432,18.896-14.883,31.334-14.883c13.708,0,33.861,15.549,47.196,25.837   c1.58,1.22,3.058,2.36,4.409,3.385c8.513,6.454,19.062,10.008,29.705,10.008c21.836,0,33.26-13.199,33.26-26.237   c0-30.545-35.116-32.093-42.156-32.093c-1.85,0-3.613,0.084-5.099,0.241c-2.073,0.221-4.736,0.631-7.819,1.105   c-7.623,1.175-18.063,2.782-28.224,2.782c-9.339,0-16.706-1.313-22.521-4.017C153.129,68.097,119.202,52.324,81.615,52.324z"
       id="path6"
       style="fill:#000000" /><g
       opacity="0.5"
       id="g14"
       style="fill:#000000"><rect
         x="0.004"
         y="170.968"
         fill="#FFFFFF"
         width="2"
         height="2"
         id="rect8"
         style="fill:#000000" /><path
         fill="#FFFFFF"
         d="M274,173h-4v-2h4V173z M266,173h-4v-2h4V173z M258,173h-4v-2h4V173z M250,173h-4v-2h4V173z M242,173h-4v-2    h4V173z M234,173h-4v-2h4V173z M226,173h-4v-2h4V173z M218,173h-4v-2h4V173z M210,173h-4v-2h4V173z M202,173h-4v-2h4V173z     M194,173h-4v-2h4V173z M186,173h-4v-2h4V173z M178,173h-4v-2h4V173z M170,173h-4v-2h4V173z M162,173h-4v-2h4V173z M154,173h-4v-2    h4V173z M146,173h-4v-2h4V173z M138,173h-4v-2h4V173z M130,173h-4v-2h4V173z M122,173h-4v-2h4V173z M114,173h-4v-2h4V173z     M106,173h-4v-2h4V173z M98,173h-4v-2h4V173z M90,173h-4v-2h4V173z M82,173h-4v-2h4V173z M74,173h-4v-2h4V173z M66,173h-4v-2h4    V173z M58,173h-4v-2h4V173z M50,173h-4v-2h4V173z M42,173h-4v-2h4V173z M34,173h-4v-2h4V173z M26,173h-4v-2h4V173z M18,173h-4v-2    h4V173z M10,173H6v-2h4V173z"
         id="path10"
         style="fill:#000000" /><rect
         x="280.004"
         y="170.968"
         fill="#FFFFFF"
         width="2"
         height="2"
         id="rect12"
         style="fill:#000000" /></g><g
       opacity="0.5"
       id="g22"
       style="fill:#000000"><rect
         x="240.004"
         y="159.968"
         fill="#FFFFFF"
         width="2"
         height="2"
         id="rect16"
         style="fill:#000000" /><path
         fill="#FFFFFF"
         d="M242,156h-2v-4h2V156z M242,148h-2v-4h2V148z M242,140h-2v-4h2V140z M242,132h-2v-4h2V132z M242,124h-2v-4    h2V124z M242,116h-2v-4h2V116z M242,108h-2v-4h2V108z M242,100h-2v-4h2V100z M242,92h-2v-4h2V92z M242,84h-2v-4h2V84z M242,76h-2    v-4h2V76z M242,68h-2v-4h2V68z M242,60h-2v-4h2V60z M242,52h-2v-4h2V52z M242,44h-2v-4h2V44z M242,36h-2v-4h2V36z"
         id="path18"
         style="fill:#000000" /><rect
         x="240.004"
         y="27.968"
         fill="#FFFFFF"
         width="2"
         height="2"
         id="rect20"
         style="fill:#000000" /></g><g
       opacity="0.5"
       id="g30"
       style="fill:#000000"><rect
         x="200.004"
         y="159.968"
         fill="#FFFFFF"
         width="2"
         height="2"
         id="rect24"
         style="fill:#000000" /><path
         fill="#FFFFFF"
         d="M202,156h-2v-4h2V156z M202,148h-2v-4h2V148z M202,140h-2v-4h2V140z M202,132h-2v-4h2V132z M202,124h-2v-4    h2V124z M202,116h-2v-4h2V116z M202,108h-2v-4h2V108z M202,100h-2v-4h2V100z M202,92h-2v-4h2V92z M202,84h-2v-4h2V84z M202,76h-2    v-4h2V76z M202,68h-2v-4h2V68z M202,60h-2v-4h2V60z M202,52h-2v-4h2V52z M202,44h-2v-4h2V44z M202,36h-2v-4h2V36z"
         id="path26"
         style="fill:#000000" /><rect
         x="200.004"
         y="27.968"
         fill="#FFFFFF"
         width="2"
         height="2"
         id="rect28"
         style="fill:#000000" /></g><g
       opacity="0.5"
       id="g38"
       style="fill:#000000"><rect
         x="50.004"
         y="159.968"
         fill="#FFFFFF"
         width="2"
         height="2"
         id="rect32"
         style="fill:#000000" /><path
         fill="#FFFFFF"
         d="M52,156h-2v-4h2V156z M52,148h-2v-4h2V148z M52,140h-2v-4h2V140z M52,132h-2v-4h2V132z M52,124h-2v-4h2    V124z M52,116h-2v-4h2V116z M52,108h-2v-4h2V108z M52,100h-2v-4h2V100z M52,92h-2v-4h2V92z M52,84h-2v-4h2V84z M52,76h-2v-4h2V76z     M52,68h-2v-4h2V68z M52,60h-2v-4h2V60z M52,52h-2v-4h2V52z M52,44h-2v-4h2V44z M52,36h-2v-4h2V36z"
         id="path34"
         style="fill:#000000" /><rect
         x="50.004"
         y="27.968"
         fill="#FFFFFF"
         width="2"
         height="2"
         id="rect36"
         style="fill:#000000" /></g><g
       id="g52"
       style="fill:#000000"><path
         fill="#FFFFFF"
         d="M126.737,194.47v-1.5l2.631-3.75c0.031-0.043,0.1-0.137,0.205-0.283s0.176-0.246,0.211-0.299    s0.096-0.146,0.182-0.281s0.146-0.238,0.179-0.311s0.078-0.176,0.135-0.309s0.097-0.25,0.12-0.354s0.045-0.225,0.064-0.363    s0.029-0.281,0.029-0.426c0-0.418-0.097-0.771-0.29-1.062s-0.472-0.438-0.835-0.438c-0.215,0-0.398,0.053-0.551,0.158    s-0.269,0.252-0.349,0.439s-0.138,0.387-0.173,0.596s-0.053,0.436-0.053,0.682v0.375h-1.5v-0.375c0-0.984,0.211-1.748,0.633-2.291    s1.086-0.814,1.992-0.814c0.852,0,1.502,0.24,1.951,0.719s0.674,1.148,0.674,2.012c0,0.324-0.028,0.627-0.085,0.908    s-0.146,0.551-0.27,0.809s-0.236,0.471-0.34,0.639s-0.247,0.383-0.431,0.645l-2.625,3.375h3.75v1.5H126.737z"
         id="path40"
         style="fill:#000000" /><path
         fill="#FFFFFF"
         d="M135.304,194.575c-0.922,0-1.591-0.266-2.007-0.799s-0.624-1.301-0.624-2.301    c0-0.652,0.09-1.176,0.27-1.572s0.469-0.723,0.867-0.977c-0.336-0.254-0.584-0.566-0.744-0.938s-0.24-0.836-0.24-1.395    c0-0.867,0.207-1.539,0.621-2.016s1.033-0.715,1.857-0.715c0.82,0,1.437,0.24,1.849,0.719s0.618,1.148,0.618,2.012    c0,0.562-0.079,1.029-0.237,1.398s-0.405,0.68-0.741,0.934c0.395,0.258,0.682,0.586,0.861,0.984s0.27,0.92,0.27,1.564    c0,1-0.207,1.768-0.621,2.301S136.222,194.575,135.304,194.575z M134.8,193.243c0.141,0.068,0.309,0.102,0.504,0.102    s0.363-0.035,0.504-0.105s0.25-0.158,0.328-0.264s0.14-0.244,0.185-0.418s0.073-0.342,0.085-0.502s0.018-0.354,0.018-0.58    c0-0.25-0.016-0.473-0.047-0.67s-0.086-0.387-0.164-0.566s-0.193-0.318-0.346-0.416s-0.34-0.146-0.562-0.146    s-0.411,0.049-0.565,0.146s-0.271,0.236-0.352,0.414s-0.136,0.365-0.167,0.562s-0.047,0.422-0.047,0.676    c0,0.227,0.007,0.422,0.021,0.584s0.043,0.33,0.088,0.504s0.107,0.312,0.188,0.418S134.659,193.175,134.8,193.243z     M135.304,188.241c0.195,0,0.358-0.045,0.489-0.135s0.228-0.219,0.29-0.389s0.104-0.342,0.126-0.514s0.032-0.375,0.032-0.609    c0-1-0.312-1.5-0.938-1.5c-0.633,0-0.949,0.5-0.949,1.5c0,0.234,0.012,0.439,0.035,0.613s0.066,0.344,0.129,0.512    s0.159,0.297,0.29,0.387S135.104,188.241,135.304,188.241z"
         id="path42"
         style="fill:#000000" /><path
         fill="#FFFFFF"
         d="M144.181,194.575c-0.441,0-0.83-0.062-1.166-0.188s-0.611-0.297-0.826-0.518s-0.39-0.496-0.524-0.826    s-0.229-0.684-0.284-1.059s-0.082-0.799-0.082-1.271v-2.994c0-0.473,0.027-0.896,0.082-1.271s0.149-0.727,0.284-1.057    s0.31-0.605,0.524-0.824s0.49-0.391,0.826-0.516s0.725-0.188,1.166-0.188c0.488,0,0.91,0.072,1.266,0.217s0.64,0.357,0.853,0.639    s0.373,0.607,0.48,0.979s0.171,0.805,0.19,1.301c0.004,0.074,0.006,0.189,0.006,0.346h-1.5v-0.334    c-0.004-0.207-0.012-0.383-0.023-0.529s-0.033-0.299-0.064-0.455s-0.077-0.285-0.138-0.389s-0.137-0.199-0.229-0.287    s-0.208-0.152-0.349-0.193s-0.305-0.062-0.492-0.062c-0.242,0-0.45,0.039-0.624,0.117s-0.31,0.18-0.407,0.303    s-0.173,0.287-0.226,0.494s-0.087,0.41-0.103,0.607s-0.023,0.439-0.023,0.729v3.75c0,0.25,0.011,0.477,0.032,0.68    s0.063,0.406,0.126,0.607s0.144,0.369,0.243,0.506s0.232,0.248,0.398,0.332s0.36,0.125,0.583,0.125s0.414-0.043,0.574-0.129    s0.286-0.195,0.378-0.328s0.164-0.303,0.217-0.51s0.087-0.408,0.103-0.604s0.023-0.422,0.023-0.68v-0.375h1.5v0.375    c0,0.543-0.048,1.02-0.144,1.43s-0.25,0.773-0.463,1.088s-0.502,0.553-0.867,0.717S144.696,194.575,144.181,194.575z"
         id="path44"
         style="fill:#000000" /><path
         fill="#FFFFFF"
         d="M147.972,194.47v-10.5h2.074l1.488,8.039l1.488-8.039h2.074v10.5h-1.5v-8.285l-1.5,8.285h-1.125    l-1.5-8.285v8.285H147.972z"
         id="path46"
         style="fill:#000000" /><path
         fill="#FFFFFF"
         d="M156.972,186.97l-0.375-0.75c0.27,0,0.462-0.059,0.577-0.176s0.173-0.309,0.173-0.574h-0.75v-1.5h1.5    c0,0.562-0.006,1.035-0.018,1.418c-0.008,0.211-0.02,0.389-0.035,0.533s-0.047,0.289-0.094,0.432s-0.109,0.256-0.188,0.34    s-0.183,0.15-0.313,0.201S157.159,186.97,156.972,186.97z"
         id="path48"
         style="fill:#000000" /><path
         fill="#FFFFFF"
         d="M162.333,194.575c-0.945,0-1.667-0.277-2.165-0.832s-0.776-1.312-0.835-2.273l1.5-0.375    c0.074,1.5,0.574,2.25,1.5,2.25c0.75,0,1.125-0.375,1.125-1.125c0-0.223-0.03-0.428-0.091-0.617s-0.153-0.363-0.278-0.521    s-0.238-0.285-0.34-0.381s-0.24-0.215-0.416-0.355l-1.875-1.5c-0.344-0.27-0.618-0.611-0.823-1.027s-0.308-0.891-0.308-1.422    c0-0.773,0.24-1.389,0.721-1.846s1.117-0.686,1.91-0.686c0.852,0,1.528,0.209,2.03,0.625s0.812,1.004,0.929,1.766    c0.012,0.082,0.025,0.195,0.041,0.34l-1.5,0.375c-0.004-0.066-0.014-0.166-0.029-0.299c-0.066-0.477-0.216-0.857-0.448-1.145    s-0.573-0.432-1.022-0.432c-0.359,0-0.637,0.102-0.832,0.303s-0.293,0.48-0.293,0.84c0,0.59,0.25,1.084,0.75,1.482l1.875,1.5    c1,0.809,1.5,1.775,1.5,2.9c0,0.77-0.237,1.371-0.712,1.805S163.134,194.575,162.333,194.575z"
         id="path50"
         style="fill:#000000" /></g><g
       id="g66"
       style="fill:#000000"><path
         fill="#FFFFFF"
         d="M33.741,11.03V2.78h-1.125V1.655c0.754-0.27,1.254-0.645,1.5-1.125h1.125v10.5H33.741z"
         id="path54"
         style="fill:#000000" /><path
         fill="#FFFFFF"
         d="M39.073,11.136c-0.852,0-1.502-0.239-1.951-0.718s-0.674-1.149-0.674-2.013V8.03h1.5    c0,0.234,0.007,0.435,0.021,0.601s0.043,0.335,0.088,0.507s0.106,0.31,0.185,0.413s0.188,0.188,0.328,0.255s0.309,0.1,0.504,0.1    s0.363-0.033,0.504-0.1s0.25-0.151,0.328-0.255s0.14-0.241,0.185-0.413s0.074-0.341,0.088-0.507s0.021-0.366,0.021-0.601    c0-0.602-0.116-1.064-0.349-1.389s-0.616-0.486-1.151-0.486v-1.5c0.547,0,0.934-0.112,1.16-0.337s0.34-0.612,0.34-1.163    c0-0.496-0.082-0.87-0.246-1.122s-0.457-0.378-0.879-0.378c-0.195,0-0.363,0.033-0.504,0.1s-0.25,0.151-0.328,0.255    s-0.14,0.241-0.185,0.413s-0.074,0.341-0.088,0.507s-0.021,0.366-0.021,0.601h-1.5V3.155c0-0.859,0.226-1.529,0.677-2.01    s1.101-0.721,1.948-0.721c0.852,0,1.502,0.239,1.951,0.718s0.674,1.149,0.674,2.013c0,0.594-0.133,1.081-0.398,1.462    s-0.633,0.644-1.102,0.788c0.488,0.164,0.86,0.471,1.116,0.92s0.384,1.018,0.384,1.705c0,0.984-0.211,1.748-0.633,2.291    S39.979,11.136,39.073,11.136z"
         id="path56"
         style="fill:#000000" /><path
         fill="#FFFFFF"
         d="M47.892,11.136c-0.441,0-0.83-0.062-1.166-0.188s-0.611-0.298-0.826-0.519s-0.39-0.496-0.524-0.826    s-0.229-0.683-0.284-1.058s-0.082-0.799-0.082-1.271V4.28c0-0.473,0.027-0.896,0.082-1.271s0.149-0.728,0.284-1.058    s0.31-0.604,0.524-0.823s0.49-0.391,0.826-0.516s0.725-0.188,1.166-0.188c0.488,0,0.91,0.072,1.266,0.217s0.64,0.357,0.853,0.639    s0.373,0.607,0.48,0.979s0.171,0.805,0.19,1.301c0.004,0.074,0.006,0.189,0.006,0.346h-1.5V3.571    c-0.004-0.207-0.012-0.384-0.023-0.53s-0.033-0.298-0.064-0.454s-0.077-0.286-0.138-0.39s-0.137-0.199-0.229-0.287    s-0.208-0.152-0.349-0.193s-0.305-0.062-0.492-0.062c-0.242,0-0.45,0.039-0.624,0.117s-0.31,0.179-0.407,0.302    s-0.173,0.288-0.226,0.495s-0.087,0.409-0.103,0.606s-0.023,0.44-0.023,0.729v3.75c0,0.25,0.011,0.477,0.032,0.68    s0.063,0.405,0.126,0.606s0.144,0.37,0.243,0.507s0.232,0.247,0.398,0.331s0.36,0.126,0.583,0.126s0.414-0.043,0.574-0.129    s0.286-0.195,0.378-0.328s0.164-0.303,0.217-0.51s0.087-0.408,0.103-0.604s0.023-0.422,0.023-0.68V7.28h1.5v0.375    c0,0.543-0.048,1.02-0.144,1.43s-0.25,0.772-0.463,1.087s-0.502,0.554-0.867,0.718S48.407,11.136,47.892,11.136z"
         id="path58"
         style="fill:#000000" /><path
         fill="#FFFFFF"
         d="M51.683,11.03V0.53h2.074l1.488,8.039l1.488-8.039h2.074v10.5h-1.5V2.745l-1.5,8.285h-1.125l-1.5-8.285    v8.285H51.683z"
         id="path60"
         style="fill:#000000" /><path
         fill="#FFFFFF"
         d="M60.683,3.53l-0.375-0.75c0.27,0,0.462-0.059,0.577-0.176s0.173-0.309,0.173-0.574h-0.75v-1.5h1.5    c0,0.562-0.006,1.035-0.018,1.418c-0.008,0.211-0.02,0.389-0.035,0.533s-0.047,0.288-0.094,0.431s-0.109,0.256-0.188,0.34    s-0.183,0.151-0.313,0.202S60.87,3.53,60.683,3.53z"
         id="path62"
         style="fill:#000000" /><path
         fill="#FFFFFF"
         d="M66.044,11.136c-0.945,0-1.667-0.277-2.165-0.832s-0.776-1.312-0.835-2.273l1.5-0.375    c0.074,1.5,0.574,2.25,1.5,2.25c0.75,0,1.125-0.375,1.125-1.125c0-0.223-0.03-0.429-0.091-0.618S66.925,7.799,66.8,7.641    s-0.238-0.285-0.34-0.381s-0.24-0.214-0.416-0.354l-1.875-1.5c-0.344-0.27-0.618-0.612-0.823-1.028s-0.308-0.89-0.308-1.421    c0-0.773,0.24-1.389,0.721-1.846s1.117-0.686,1.91-0.686c0.852,0,1.528,0.208,2.03,0.624s0.812,1.005,0.929,1.767    c0.012,0.082,0.025,0.195,0.041,0.34l-1.5,0.375c-0.004-0.066-0.014-0.166-0.029-0.299c-0.066-0.477-0.216-0.858-0.448-1.146    s-0.573-0.431-1.022-0.431c-0.359,0-0.637,0.101-0.832,0.302s-0.293,0.481-0.293,0.841c0,0.59,0.25,1.084,0.75,1.482l1.875,1.5    c1,0.809,1.5,1.775,1.5,2.9c0,0.77-0.237,1.371-0.712,1.805S66.845,11.136,66.044,11.136z"
         id="path64"
         style="fill:#000000" /></g><g
       id="g78"
       style="fill:#000000"><path
         fill="#FFFFFF"
         d="M187.013,11.136c-0.922,0-1.591-0.267-2.007-0.8s-0.624-1.3-0.624-2.3c0-0.652,0.09-1.177,0.27-1.573    s0.469-0.722,0.867-0.976c-0.336-0.254-0.584-0.566-0.744-0.938s-0.24-0.836-0.24-1.395c0-0.867,0.207-1.539,0.621-2.016    s1.033-0.715,1.857-0.715c0.82,0,1.437,0.239,1.849,0.718s0.618,1.149,0.618,2.013c0,0.562-0.079,1.028-0.237,1.397    s-0.405,0.681-0.741,0.935c0.395,0.258,0.682,0.586,0.861,0.984s0.27,0.92,0.27,1.564c0,1-0.207,1.767-0.621,2.3    S187.931,11.136,187.013,11.136z M186.509,9.803c0.141,0.068,0.309,0.103,0.504,0.103s0.363-0.035,0.504-0.105    s0.25-0.158,0.328-0.264s0.14-0.245,0.185-0.419s0.073-0.341,0.085-0.501s0.018-0.354,0.018-0.58c0-0.25-0.016-0.474-0.047-0.671    s-0.086-0.386-0.164-0.565s-0.193-0.318-0.346-0.416s-0.34-0.146-0.562-0.146s-0.411,0.049-0.565,0.146s-0.271,0.235-0.352,0.413    s-0.136,0.365-0.167,0.562s-0.047,0.423-0.047,0.677c0,0.227,0.007,0.421,0.021,0.583s0.043,0.33,0.088,0.504    s0.107,0.313,0.188,0.419S186.368,9.734,186.509,9.803z M187.013,4.802c0.195,0,0.358-0.045,0.489-0.135s0.228-0.22,0.29-0.39    s0.104-0.341,0.126-0.513s0.032-0.375,0.032-0.609c0-1-0.312-1.5-0.938-1.5c-0.633,0-0.949,0.5-0.949,1.5    c0,0.234,0.012,0.438,0.035,0.612s0.066,0.345,0.129,0.513s0.159,0.297,0.29,0.387S186.813,4.802,187.013,4.802z"
         id="path68"
         style="fill:#000000" /><path
         fill="#FFFFFF"
         d="M195.89,11.136c-0.441,0-0.83-0.062-1.166-0.188s-0.611-0.298-0.826-0.519s-0.39-0.496-0.524-0.826    s-0.229-0.683-0.284-1.058s-0.082-0.799-0.082-1.271V4.28c0-0.473,0.027-0.896,0.082-1.271s0.149-0.728,0.284-1.058    s0.31-0.604,0.524-0.823s0.49-0.391,0.826-0.516s0.725-0.188,1.166-0.188c0.488,0,0.91,0.072,1.266,0.217s0.64,0.357,0.853,0.639    s0.373,0.607,0.48,0.979s0.171,0.805,0.19,1.301c0.004,0.074,0.006,0.189,0.006,0.346h-1.5V3.571    c-0.004-0.207-0.012-0.384-0.023-0.53s-0.033-0.298-0.064-0.454s-0.077-0.286-0.138-0.39s-0.137-0.199-0.229-0.287    s-0.208-0.152-0.349-0.193s-0.305-0.062-0.492-0.062c-0.242,0-0.45,0.039-0.624,0.117s-0.31,0.179-0.407,0.302    s-0.173,0.288-0.226,0.495s-0.087,0.409-0.103,0.606s-0.023,0.44-0.023,0.729v3.75c0,0.25,0.011,0.477,0.032,0.68    s0.063,0.405,0.126,0.606s0.144,0.37,0.243,0.507s0.232,0.247,0.398,0.331s0.36,0.126,0.583,0.126s0.414-0.043,0.574-0.129    s0.286-0.195,0.378-0.328s0.164-0.303,0.217-0.51s0.087-0.408,0.103-0.604s0.023-0.422,0.023-0.68V7.28h1.5v0.375    c0,0.543-0.048,1.02-0.144,1.43s-0.25,0.772-0.463,1.087s-0.502,0.554-0.867,0.718S196.405,11.136,195.89,11.136z"
         id="path70"
         style="fill:#000000" /><path
         fill="#FFFFFF"
         d="M199.681,11.03V0.53h2.074l1.488,8.039l1.488-8.039h2.074v10.5h-1.5V2.745l-1.5,8.285h-1.125l-1.5-8.285    v8.285H199.681z"
         id="path72"
         style="fill:#000000" /><path
         fill="#FFFFFF"
         d="M208.681,3.53l-0.375-0.75c0.27,0,0.462-0.059,0.577-0.176s0.173-0.309,0.173-0.574h-0.75v-1.5h1.5    c0,0.562-0.006,1.035-0.018,1.418c-0.008,0.211-0.02,0.389-0.035,0.533s-0.047,0.288-0.094,0.431s-0.109,0.256-0.188,0.34    s-0.183,0.151-0.313,0.202S208.868,3.53,208.681,3.53z"
         id="path74"
         style="fill:#000000" /><path
         fill="#FFFFFF"
         d="M214.042,11.136c-0.945,0-1.667-0.277-2.165-0.832s-0.776-1.312-0.835-2.273l1.5-0.375    c0.074,1.5,0.574,2.25,1.5,2.25c0.75,0,1.125-0.375,1.125-1.125c0-0.223-0.03-0.429-0.091-0.618s-0.153-0.363-0.278-0.521    s-0.238-0.285-0.34-0.381s-0.24-0.214-0.416-0.354l-1.875-1.5c-0.344-0.27-0.618-0.612-0.823-1.028s-0.308-0.89-0.308-1.421    c0-0.773,0.24-1.389,0.721-1.846s1.117-0.686,1.91-0.686c0.852,0,1.528,0.208,2.03,0.624s0.812,1.005,0.929,1.767    c0.012,0.082,0.025,0.195,0.041,0.34l-1.5,0.375c-0.004-0.066-0.014-0.166-0.029-0.299c-0.066-0.477-0.216-0.858-0.448-1.146    s-0.573-0.431-1.022-0.431c-0.359,0-0.637,0.101-0.832,0.302s-0.293,0.481-0.293,0.841c0,0.59,0.25,1.084,0.75,1.482l1.875,1.5    c1,0.809,1.5,1.775,1.5,2.9c0,0.77-0.237,1.371-0.712,1.805S214.843,11.136,214.042,11.136z"
         id="path76"
         style="fill:#000000" /></g><g
       id="g92"
       style="fill:#000000"><path
         fill="#FFFFFF"
         d="M224.291,11.03V2.78h-1.125V1.655c0.754-0.27,1.254-0.645,1.5-1.125h1.125v10.5H224.291z"
         id="path80"
         style="fill:#000000" /><path
         fill="#FFFFFF"
         d="M229.729,11.136c-0.57,0-1.056-0.135-1.456-0.404s-0.695-0.634-0.885-1.093s-0.284-0.995-0.284-1.608v-4.5    c0-0.965,0.219-1.724,0.656-2.276s1.094-0.829,1.969-0.829c0.871,0,1.526,0.277,1.966,0.832s0.659,1.312,0.659,2.273v4.5    c0,0.941-0.224,1.694-0.671,2.259S230.584,11.136,229.729,11.136z M229.729,9.905c0.75,0,1.125-0.625,1.125-1.875v-4.5    c0-0.211-0.008-0.399-0.023-0.565s-0.048-0.334-0.097-0.504s-0.113-0.312-0.193-0.425s-0.188-0.205-0.325-0.275    s-0.299-0.105-0.486-0.105s-0.35,0.035-0.486,0.105s-0.245,0.162-0.325,0.275s-0.145,0.255-0.193,0.425s-0.081,0.338-0.097,0.504    s-0.023,0.354-0.023,0.565v4.5c0,0.246,0.017,0.473,0.05,0.68s0.09,0.404,0.17,0.592s0.196,0.335,0.349,0.442    S229.51,9.905,229.729,9.905z"
         id="path82"
         style="fill:#000000" /><path
         fill="#FFFFFF"
         d="M238.799,11.136c-0.441,0-0.83-0.062-1.166-0.188s-0.611-0.298-0.826-0.519s-0.39-0.496-0.524-0.826    s-0.229-0.683-0.284-1.058s-0.082-0.799-0.082-1.271V4.28c0-0.473,0.027-0.896,0.082-1.271s0.149-0.728,0.284-1.058    s0.31-0.604,0.524-0.823s0.49-0.391,0.826-0.516s0.725-0.188,1.166-0.188c0.488,0,0.91,0.072,1.266,0.217s0.64,0.357,0.853,0.639    s0.373,0.607,0.48,0.979s0.171,0.805,0.19,1.301c0.004,0.074,0.006,0.189,0.006,0.346h-1.5V3.571    c-0.004-0.207-0.012-0.384-0.023-0.53s-0.033-0.298-0.064-0.454s-0.077-0.286-0.138-0.39s-0.137-0.199-0.229-0.287    s-0.208-0.152-0.349-0.193s-0.305-0.062-0.492-0.062c-0.242,0-0.45,0.039-0.624,0.117s-0.31,0.179-0.407,0.302    s-0.173,0.288-0.226,0.495s-0.087,0.409-0.103,0.606s-0.023,0.44-0.023,0.729v3.75c0,0.25,0.011,0.477,0.032,0.68    s0.063,0.405,0.126,0.606s0.144,0.37,0.243,0.507s0.232,0.247,0.398,0.331s0.36,0.126,0.583,0.126s0.414-0.043,0.574-0.129    s0.286-0.195,0.378-0.328s0.164-0.303,0.217-0.51s0.087-0.408,0.103-0.604s0.023-0.422,0.023-0.68V7.28h1.5v0.375    c0,0.543-0.048,1.02-0.144,1.43s-0.25,0.772-0.463,1.087s-0.502,0.554-0.867,0.718S239.314,11.136,238.799,11.136z"
         id="path84"
         style="fill:#000000" /><path
         fill="#FFFFFF"
         d="M242.59,11.03V0.53h2.074l1.488,8.039l1.488-8.039h2.074v10.5h-1.5V2.745l-1.5,8.285h-1.125l-1.5-8.285    v8.285H242.59z"
         id="path86"
         style="fill:#000000" /><path
         fill="#FFFFFF"
         d="M251.59,3.53l-0.375-0.75c0.27,0,0.462-0.059,0.577-0.176s0.173-0.309,0.173-0.574h-0.75v-1.5h1.5    c0,0.562-0.006,1.035-0.018,1.418c-0.008,0.211-0.02,0.389-0.035,0.533s-0.047,0.288-0.094,0.431s-0.109,0.256-0.188,0.34    s-0.183,0.151-0.313,0.202S251.777,3.53,251.59,3.53z"
         id="path88"
         style="fill:#000000" /><path
         fill="#FFFFFF"
         d="M256.951,11.136c-0.945,0-1.667-0.277-2.165-0.832s-0.776-1.312-0.835-2.273l1.5-0.375    c0.074,1.5,0.574,2.25,1.5,2.25c0.75,0,1.125-0.375,1.125-1.125c0-0.223-0.03-0.429-0.091-0.618s-0.153-0.363-0.278-0.521    s-0.238-0.285-0.34-0.381s-0.24-0.214-0.416-0.354l-1.875-1.5c-0.344-0.27-0.618-0.612-0.823-1.028s-0.308-0.89-0.308-1.421    c0-0.773,0.24-1.389,0.721-1.846s1.117-0.686,1.91-0.686c0.852,0,1.528,0.208,2.03,0.624s0.812,1.005,0.929,1.767    c0.012,0.082,0.025,0.195,0.041,0.34l-1.5,0.375c-0.004-0.066-0.014-0.166-0.029-0.299c-0.066-0.477-0.216-0.858-0.448-1.146    s-0.573-0.431-1.022-0.431c-0.359,0-0.637,0.101-0.832,0.302s-0.293,0.481-0.293,0.841c0,0.59,0.25,1.084,0.75,1.482l1.875,1.5    c1,0.809,1.5,1.775,1.5,2.9c0,0.77-0.237,1.371-0.712,1.805S257.752,11.136,256.951,11.136z"
         id="path90"
         style="fill:#000000" /></g></g></svg>