<?xml version="1.0" standalone="no"?>
<!DOCTYPE svg PUBLIC "-//W3C//DTD SVG 20010904//EN"
 "http://www.w3.org/TR/2001/REC-SVG-20010904/DTD/svg10.dtd">
<svg version="1.0" xmlns="http://www.w3.org/2000/svg"
 width="460.000000pt" height="460.000000pt" viewBox="0 0 460.000000 460.000000"
 preserveAspectRatio="xMidYMid meet">
<metadata>
Created by potrace 1.11, written by Peter Selinger 2001-2013
</metadata>
<g transform="translate(0.000000,460.000000) scale(0.100000,-0.100000)"
fill="#000000" stroke="none">
<path d="M0 2300 l0 -1100 2300 0 2300 0 0 1100 0 1100 -2300 0 -2300 0 0
-1100z m1500 600 l0 -400 -700 0 -700 0 0 400 0 400 700 0 700 0 0 -400z
m1500 -600 l0 -1000 -700 0 -700 0 0 1000 0 1000 700 0 700 0 0 -1000z m1500
0 l0 -1000 -700 0 -700 0 0 1000 0 1000 700 0 700 0 0 -1000z m-4000 -50 l0
-150 -200 0 -200 0 0 150 0 150 200 0 200 0 0 -150z m500 0 l0 -150 -200 0
-200 0 0 150 0 150 200 0 200 0 0 -150z m500 0 l0 -150 -200 0 -200 0 0 150 0
150 200 0 200 0 0 -150z m-1000 -400 l0 -150 -200 0 -200 0 0 150 0 150 200 0
200 0 0 -150z m500 0 l0 -150 -200 0 -200 0 0 150 0 150 200 0 200 0 0 -150z
m500 0 l0 -150 -200 0 -200 0 0 150 0 150 200 0 200 0 0 -150z m-1000 -400 l0
-150 -200 0 -200 0 0 150 0 150 200 0 200 0 0 -150z m500 0 l0 -150 -200 0
-200 0 0 150 0 150 200 0 200 0 0 -150z m500 0 l0 -150 -200 0 -200 0 0 150 0
150 200 0 200 0 0 -150z"/>
<path d="M800 2850 l0 -50 100 0 100 0 0 50 0 50 -100 0 -100 0 0 -50z"/>
<path d="M1100 2850 l0 -50 100 0 100 0 0 50 0 50 -100 0 -100 0 0 -50z"/>
<path d="M2400 2350 l0 -50 150 0 150 0 0 -100 0 -100 50 0 50 0 0 150 0 150
-200 0 -200 0 0 -50z"/>
<path d="M3900 2350 l0 -50 150 0 150 0 0 -100 0 -100 50 0 50 0 0 150 0 150
-200 0 -200 0 0 -50z"/>
</g>
</svg>
